<?xml version="1.0" encoding="utf-8"?>
<svg viewBox="0 0 580 360" xmlns="http://www.w3.org/2000/svg">
  <rect x="323.82" y="20.039" width="5" height="95" style="fill: rgb(170, 170, 170);"/>
  <rect x="180.82" y="20.039" width="120" height="20" style="fill: rgb(235, 85, 85);"/>
  <rect x="180.82" y="45.039" width="45" height="20" style="fill: rgb(235, 85, 85);"/>
  <rect x="230.82" y="45.039" width="70" height="20" style="fill: rgb(235, 85, 85);"/>
  <rect x="180.82" y="70.039" width="20" height="20" style="fill: rgb(235, 85, 85);"/>
  <rect x="205.82" y="70.039" width="20" height="20" style="fill: rgb(235, 85, 85);"/>
  <rect x="230.82" y="70.039" width="20" height="20" style="fill: rgb(235, 85, 85);"/>
  <rect x="255.82" y="70.039" width="20" height="20" style="fill: rgb(235, 85, 85);"/>
  <rect x="280.82" y="70.039" width="20" height="20" style="fill: rgb(235, 85, 85);"/>
  <rect x="180.82" y="95.039" width="20" height="20" style="fill: rgb(71, 95, 119);"/>
  <rect x="205.82" y="95.039" width="20" height="20" style="fill: rgb(71, 95, 119);"/>
  <rect x="230.82" y="95.039" width="20" height="20" style="fill: rgb(71, 95, 119);"/>
  <rect x="255.82" y="95.039" width="20" height="20" style="fill: rgb(71, 95, 119);"/>
  <rect x="280.82" y="95.039" width="20" height="20" style="fill: rgb(71, 95, 119);"/>
  <rect x="180.82" y="120.039" width="20" height="20" style="fill: rgb(71, 95, 119);"/>
  <rect x="205.82" y="120.039" width="20" height="20" style="fill: rgb(71, 95, 119);"/>
  <rect x="230.82" y="120.039" width="20" height="20" style="fill: rgb(71, 95, 119);"/>
  <rect x="255.82" y="120.039" width="20" height="20" style="fill: rgb(71, 95, 119);"/>
  <rect x="280.82" y="120.039" width="20" height="20" style="fill: rgb(71, 95, 119);"/>
  <rect x="180.82" y="145.039" width="20" height="20" style="fill: rgb(71, 95, 119);"/>
  <rect x="205.82" y="145.039" width="20" height="20" style="fill: rgb(71, 95, 119);"/>
  <rect x="230.82" y="145.039" width="20" height="20" style="fill: rgb(71, 95, 119);"/>
  <rect x="255.82" y="145.039" width="20" height="20" style="fill: rgb(71, 95, 119);"/>
  <rect x="280.82" y="145.039" width="20" height="20" style="fill: rgb(71, 95, 119);"/>
  <rect x="180.82" y="170.039" width="20" height="20" style="fill: rgb(71, 95, 119);"/>
  <rect x="205.82" y="170.039" width="20" height="20" style="fill: rgb(71, 95, 119);"/>
  <rect x="230.82" y="170.039" width="20" height="20" style="fill: rgb(71, 95, 119);"/>
  <rect x="255.82" y="170.039" width="20" height="20" style="fill: rgb(71, 95, 119);"/>
  <rect x="280.82" y="170.039" width="20" height="20" style="fill: rgb(71, 95, 119);"/>
  <rect x="180.82" y="195.039" width="45" height="20" style="fill: rgb(27, 187, 218);"/>
  <rect x="230.82" y="195.039" width="70" height="20" style="fill: rgb(27, 187, 218);"/>
  <rect x="180.82" y="220.039" width="120" height="20" style="fill: rgb(27, 187, 218);"/>
  <rect x="324.82" y="143" width="5" height="95" style="fill: rgb(170, 170, 170);"/>
  <path d="M 343.809 24.121 L 343.809 34.071 L 342.499 34.071 L 342.499 29.471 L 337.479 29.471 L 337.479 34.071 L 336.169 34.071 L 336.169 24.121 L 337.479 24.121 L 337.479 28.401 L 342.499 28.401 L 342.499 24.121 L 343.809 24.121 ZM 349.019 34.211 C 348.012 34.211 347.196 33.881 346.569 33.221 C 345.942 32.561 345.629 31.681 345.629 30.581 L 345.629 30.341 C 345.629 29.608 345.769 28.954 346.049 28.381 C 346.329 27.801 346.719 27.351 347.219 27.031 C 347.726 26.704 348.272 26.541 348.859 26.541 C 349.819 26.541 350.566 26.858 351.099 27.491 C 351.632 28.124 351.899 29.031 351.899 30.211 L 351.899 30.731 L 346.889 30.731 C 346.909 31.464 347.122 32.054 347.529 32.501 C 347.936 32.948 348.452 33.171 349.079 33.171 C 349.526 33.171 349.906 33.081 350.219 32.901 C 350.526 32.721 350.796 32.481 351.029 32.181 L 351.809 32.781 C 351.189 33.734 350.259 34.211 349.019 34.211 Z M 348.859 27.581 C 348.346 27.581 347.916 27.764 347.569 28.131 C 347.222 28.504 347.009 29.024 346.929 29.691 L 350.639 29.691 L 350.639 29.601 C 350.599 28.961 350.426 28.464 350.119 28.111 C 349.806 27.758 349.386 27.581 348.859 27.581 ZM 359.256 34.071 L 357.926 34.071 C 357.853 33.924 357.796 33.664 357.756 33.291 C 357.163 33.904 356.459 34.211 355.646 34.211 C 354.919 34.211 354.323 34.004 353.856 33.591 C 353.389 33.178 353.156 32.654 353.156 32.021 C 353.156 31.248 353.446 30.648 354.026 30.221 C 354.613 29.801 355.436 29.591 356.496 29.591 L 357.736 29.591 L 357.736 29.001 C 357.736 28.561 357.603 28.211 357.336 27.951 C 357.069 27.691 356.679 27.561 356.166 27.561 C 355.713 27.561 355.336 27.674 355.036 27.901 C 354.729 28.128 354.576 28.401 354.576 28.721 L 353.306 28.721 C 353.306 28.354 353.436 27.998 353.696 27.651 C 353.956 27.311 354.309 27.041 354.756 26.841 C 355.209 26.641 355.703 26.541 356.236 26.541 C 357.089 26.541 357.759 26.754 358.246 27.181 C 358.726 27.608 358.976 28.194 358.996 28.941 L 358.996 32.341 C 358.996 33.021 359.083 33.561 359.256 33.961 L 359.256 34.071 Z M 355.826 33.111 C 356.226 33.111 356.603 33.008 356.956 32.801 C 357.316 32.594 357.576 32.328 357.736 32.001 L 357.736 30.481 L 356.736 30.481 C 355.189 30.481 354.416 30.934 354.416 31.841 C 354.416 32.241 354.549 32.551 354.816 32.771 C 355.076 32.998 355.413 33.111 355.826 33.111 ZM 360.671 30.411 L 360.671 30.311 C 360.671 29.178 360.941 28.264 361.481 27.571 C 362.015 26.884 362.718 26.541 363.591 26.541 C 364.458 26.541 365.145 26.838 365.651 27.431 L 365.651 23.571 L 366.911 23.571 L 366.911 34.071 L 365.751 34.071 L 365.691 33.281 C 365.185 33.901 364.478 34.211 363.571 34.211 C 362.718 34.211 362.021 33.858 361.481 33.151 C 360.941 32.451 360.671 31.538 360.671 30.411 Z M 361.931 30.451 C 361.931 31.291 362.105 31.948 362.451 32.421 C 362.798 32.894 363.278 33.131 363.891 33.131 C 364.691 33.131 365.278 32.771 365.651 32.051 L 365.651 28.661 C 365.271 27.961 364.688 27.611 363.901 27.611 C 363.281 27.611 362.798 27.851 362.451 28.331 C 362.105 28.811 361.931 29.518 361.931 30.451 ZM 371.947 34.211 C 370.94 34.211 370.123 33.881 369.497 33.221 C 368.87 32.561 368.557 31.681 368.557 30.581 L 368.557 30.341 C 368.557 29.608 368.697 28.954 368.977 28.381 C 369.257 27.801 369.647 27.351 370.147 27.031 C 370.653 26.704 371.2 26.541 371.787 26.541 C 372.747 26.541 373.493 26.858 374.027 27.491 C 374.56 28.124 374.827 29.031 374.827 30.211 L 374.827 30.731 L 369.817 30.731 C 369.837 31.464 370.05 32.054 370.457 32.501 C 370.863 32.948 371.38 33.171 372.007 33.171 C 372.453 33.171 372.833 33.081 373.147 32.901 C 373.453 32.721 373.723 32.481 373.957 32.181 L 374.737 32.781 C 374.117 33.734 373.187 34.211 371.947 34.211 Z M 371.787 27.581 C 371.273 27.581 370.843 27.764 370.497 28.131 C 370.15 28.504 369.937 29.024 369.857 29.691 L 373.567 29.691 L 373.567 29.601 C 373.527 28.961 373.353 28.464 373.047 28.111 C 372.733 27.758 372.313 27.581 371.787 27.581 ZM 379.864 26.631 L 379.864 27.811 C 379.677 27.778 379.47 27.761 379.244 27.761 C 378.417 27.761 377.854 28.114 377.554 28.821 L 377.554 34.071 L 376.294 34.071 L 376.294 26.671 L 377.524 26.671 L 377.544 27.531 C 377.957 26.871 378.544 26.541 379.304 26.541 C 379.55 26.541 379.737 26.571 379.864 26.631 Z" transform="matrix(1, 0, 0, 1, 0, 0)" style="fill: rgb(51, 51, 51); white-space: pre;"/>
  <text style="fill: rgb(235, 85, 85); font-family: &quot;Roboto Mono&quot;; font-size: 8px; white-space: pre;" x="333.008" y="50.398">add_header_row()</text>
  <text style="fill: rgb(51, 51, 51); font-family: 'Roboto Mono'; font-size: 8px; white-space: pre;" x="333.008" y="65.398">add_header_lines()</text>
  <text style="fill: rgb(51, 51, 51); font-family: 'Roboto Mono'; font-size: 8px; white-space: pre;" x="333.008" y="80.398">add_header()</text>
  <text style="fill: rgb(235, 85, 85); font-family: &quot;Roboto Mono&quot;; font-size: 8px; white-space: pre;" x="333.008" y="95.398">set_header_labels()</text>
  <text style="fill: rgb(51, 51, 51); font-family: 'Roboto Mono'; font-size: 8px; white-space: pre;" x="333.008" y="110.398">set_header_df()</text>
  <path d="M 341.635 150.972 L 341.635 152.042 L 337.465 152.042 L 337.465 156.442 L 336.155 156.442 L 336.155 146.492 L 342.315 146.492 L 342.315 147.572 L 337.465 147.572 L 337.465 150.972 L 341.635 150.972 ZM 343.21 152.762 L 343.21 152.672 C 343.21 151.952 343.353 151.302 343.64 150.722 C 343.926 150.142 344.323 149.695 344.83 149.382 C 345.336 149.069 345.916 148.912 346.57 148.912 C 347.576 148.912 348.39 149.259 349.01 149.952 C 349.636 150.652 349.95 151.579 349.95 152.732 L 349.95 152.822 C 349.95 153.542 349.81 154.189 349.53 154.762 C 349.256 155.335 348.863 155.782 348.35 156.102 C 347.836 156.422 347.246 156.582 346.58 156.582 C 345.58 156.582 344.77 156.232 344.15 155.532 C 343.523 154.832 343.21 153.909 343.21 152.762 Z M 344.48 152.822 C 344.48 153.642 344.67 154.302 345.05 154.802 C 345.436 155.295 345.946 155.542 346.58 155.542 C 347.226 155.542 347.736 155.292 348.11 154.792 C 348.49 154.285 348.68 153.579 348.68 152.672 C 348.68 151.865 348.486 151.209 348.1 150.702 C 347.72 150.202 347.21 149.952 346.57 149.952 C 345.943 149.952 345.44 150.199 345.06 150.692 C 344.673 151.192 344.48 151.902 344.48 152.822 ZM 351.194 152.762 L 351.194 152.672 C 351.194 151.952 351.337 151.302 351.624 150.722 C 351.911 150.142 352.307 149.695 352.814 149.382 C 353.321 149.069 353.901 148.912 354.554 148.912 C 355.561 148.912 356.374 149.259 356.994 149.952 C 357.621 150.652 357.934 151.579 357.934 152.732 L 357.934 152.822 C 357.934 153.542 357.794 154.189 357.514 154.762 C 357.241 155.335 356.847 155.782 356.334 156.102 C 355.821 156.422 355.231 156.582 354.564 156.582 C 353.564 156.582 352.754 156.232 352.134 155.532 C 351.507 154.832 351.194 153.909 351.194 152.762 Z M 352.464 152.822 C 352.464 153.642 352.654 154.302 353.034 154.802 C 353.421 155.295 353.931 155.542 354.564 155.542 C 355.211 155.542 355.721 155.292 356.094 154.792 C 356.474 154.285 356.664 153.579 356.664 152.672 C 356.664 151.865 356.471 151.209 356.084 150.702 C 355.704 150.202 355.194 149.952 354.554 149.952 C 353.927 149.952 353.424 150.199 353.044 150.692 C 352.657 151.192 352.464 151.902 352.464 152.822 ZM 359.968 147.252 L 361.228 147.252 L 361.228 149.042 L 362.608 149.042 L 362.608 150.022 L 361.228 150.022 L 361.228 154.612 C 361.228 154.905 361.292 155.125 361.418 155.272 C 361.538 155.425 361.748 155.502 362.048 155.502 C 362.195 155.502 362.395 155.472 362.648 155.412 L 362.648 156.442 C 362.315 156.535 361.992 156.582 361.678 156.582 C 361.112 156.582 360.685 156.409 360.398 156.062 C 360.112 155.722 359.968 155.239 359.968 154.612 L 359.968 150.022 L 358.618 150.022 L 358.618 149.042 L 359.968 149.042 L 359.968 147.252 ZM 367.162 156.582 C 366.155 156.582 365.338 156.252 364.712 155.592 C 364.085 154.932 363.772 154.052 363.772 152.952 L 363.772 152.712 C 363.772 151.979 363.912 151.325 364.192 150.752 C 364.472 150.172 364.862 149.722 365.362 149.402 C 365.868 149.075 366.415 148.912 367.002 148.912 C 367.962 148.912 368.708 149.229 369.242 149.862 C 369.775 150.495 370.042 151.402 370.042 152.582 L 370.042 153.102 L 365.032 153.102 C 365.052 153.835 365.265 154.425 365.672 154.872 C 366.078 155.319 366.595 155.542 367.222 155.542 C 367.668 155.542 368.048 155.452 368.362 155.272 C 368.668 155.092 368.938 154.852 369.172 154.552 L 369.952 155.152 C 369.332 156.105 368.402 156.582 367.162 156.582 Z M 367.002 149.952 C 366.488 149.952 366.058 150.135 365.712 150.502 C 365.365 150.875 365.152 151.395 365.072 152.062 L 368.782 152.062 L 368.782 151.972 C 368.742 151.332 368.568 150.835 368.262 150.482 C 367.948 150.129 367.528 149.952 367.002 149.952 ZM 375.079 149.002 L 375.079 150.182 C 374.892 150.149 374.685 150.132 374.459 150.132 C 373.632 150.132 373.069 150.485 372.769 151.192 L 372.769 156.442 L 371.509 156.442 L 371.509 149.042 L 372.739 149.042 L 372.759 149.902 C 373.172 149.242 373.759 148.912 374.519 148.912 C 374.765 148.912 374.952 148.942 375.079 149.002 Z" transform="matrix(1, 0, 0, 1, 0, 0)" style="fill: rgb(51, 51, 51); white-space: pre;"/>
  <text style="fill: rgb(51, 51, 51); font-family: 'Roboto Mono'; font-size: 8px; white-space: pre;" x="333.011" y="175">add_footer_row()</text>
  <text style="fill: rgb(51, 51, 51); font-family: 'Roboto Mono'; font-size: 8px; white-space: pre;" x="333.011" y="190">add_footer_lines()</text>
  <text style="fill: rgb(51, 51, 51); font-family: 'Roboto Mono'; font-size: 8px; white-space: pre;" x="333.011" y="205">add_footer()</text>
  <text style="fill: rgb(51, 51, 51); font-family: 'Roboto Mono'; font-size: 8px; white-space: pre;" x="333.008" y="220">set_footer_labels()</text>
  <text style="fill: rgb(51, 51, 51); font-family: 'Roboto Mono'; font-size: 8px; white-space: pre;" x="333.011" y="235">set_footer_df()</text>
  <path d="M 454.898 28.708 C 453.771 28.388 452.951 27.991 452.438 27.518 C 451.925 27.045 451.668 26.461 451.668 25.768 C 451.668 24.988 451.981 24.341 452.608 23.828 C 453.235 23.315 454.051 23.058 455.058 23.058 C 455.738 23.058 456.345 23.191 456.878 23.458 C 457.418 23.718 457.835 24.081 458.128 24.548 C 458.421 25.015 458.568 25.521 458.568 26.068 L 457.248 26.068 C 457.248 25.468 457.058 24.998 456.678 24.658 C 456.291 24.311 455.751 24.138 455.058 24.138 C 454.405 24.138 453.898 24.281 453.538 24.568 C 453.178 24.848 452.998 25.241 452.998 25.748 C 452.998 26.155 453.168 26.498 453.508 26.778 C 453.855 27.058 454.441 27.315 455.268 27.548 C 456.095 27.781 456.741 28.038 457.208 28.318 C 457.675 28.598 458.021 28.925 458.248 29.298 C 458.475 29.671 458.588 30.111 458.588 30.618 C 458.588 31.425 458.275 32.071 457.648 32.558 C 457.015 33.045 456.171 33.288 455.118 33.288 C 454.438 33.288 453.801 33.155 453.208 32.888 C 452.615 32.628 452.158 32.271 451.838 31.818 C 451.518 31.358 451.358 30.841 451.358 30.268 L 452.678 30.268 C 452.678 30.868 452.898 31.341 453.338 31.688 C 453.785 32.035 454.378 32.208 455.118 32.208 C 455.811 32.208 456.345 32.068 456.718 31.788 C 457.085 31.508 457.268 31.121 457.268 30.628 C 457.268 30.141 457.098 29.765 456.758 29.498 C 456.411 29.231 455.791 28.968 454.898 28.708 ZM 460.524 23.958 L 461.784 23.958 L 461.784 25.748 L 463.164 25.748 L 463.164 26.728 L 461.784 26.728 L 461.784 31.318 C 461.784 31.611 461.847 31.831 461.974 31.978 C 462.094 32.131 462.304 32.208 462.604 32.208 C 462.75 32.208 462.95 32.178 463.204 32.118 L 463.204 33.148 C 462.87 33.241 462.547 33.288 462.234 33.288 C 461.667 33.288 461.24 33.115 460.954 32.768 C 460.667 32.428 460.524 31.945 460.524 31.318 L 460.524 26.728 L 459.174 26.728 L 459.174 25.748 L 460.524 25.748 L 460.524 23.958 ZM 465.217 25.748 L 467.067 31.298 L 468.787 25.748 L 470.137 25.748 L 467.167 34.288 C 466.707 35.521 465.977 36.138 464.977 36.138 L 464.737 36.118 L 464.257 36.028 L 464.257 34.998 L 464.607 35.028 C 465.034 35.028 465.367 34.941 465.607 34.768 C 465.847 34.595 466.044 34.278 466.197 33.818 L 466.477 33.068 L 463.837 25.748 L 465.217 25.748 ZM 472.641 22.648 L 472.641 33.148 L 471.381 33.148 L 471.381 22.648 L 472.641 22.648 ZM 477.738 33.288 C 476.732 33.288 475.915 32.958 475.288 32.298 C 474.662 31.638 474.348 30.758 474.348 29.658 L 474.348 29.418 C 474.348 28.685 474.488 28.031 474.768 27.458 C 475.048 26.878 475.438 26.428 475.938 26.108 C 476.445 25.781 476.992 25.618 477.578 25.618 C 478.538 25.618 479.285 25.935 479.818 26.568 C 480.352 27.201 480.618 28.108 480.618 29.288 L 480.618 29.808 L 475.608 29.808 C 475.628 30.541 475.842 31.131 476.248 31.578 C 476.655 32.025 477.172 32.248 477.798 32.248 C 478.245 32.248 478.625 32.158 478.938 31.978 C 479.245 31.798 479.515 31.558 479.748 31.258 L 480.528 31.858 C 479.908 32.811 478.978 33.288 477.738 33.288 Z M 477.578 26.658 C 477.065 26.658 476.635 26.841 476.288 27.208 C 475.942 27.581 475.728 28.101 475.648 28.768 L 479.358 28.768 L 479.358 28.678 C 479.318 28.038 479.145 27.541 478.838 27.188 C 478.525 26.835 478.105 26.658 477.578 26.658 Z" transform="matrix(1, 0, 0, 1, 0, 0)" style="fill: rgb(51, 51, 51); white-space: pre;"/>
  <text style="fill: rgb(51, 51, 51); font-family: 'Roboto Mono'; font-size: 8px; white-space: pre;" x="450.808" y="53.148">style(): general style function</text>
  <text style="fill: rgb(51, 51, 51); font-family: 'Roboto Mono'; font-size: 8px; white-space: pre;" x="450.808" y="68.148">align(): set text alignment</text>
  <text style="fill: rgb(51, 51, 51); font-family: 'Roboto Mono'; font-size: 8px; white-space: pre;" x="450.808" y="83.148">bg(): set background color</text>
  <text style="fill: rgb(51, 51, 51); font-family: 'Roboto Mono'; font-size: 8px; white-space: pre;" x="450.808" y="98.148">font(): set font</text>
  <text style="fill: rgb(51, 51, 51); font-family: 'Roboto Mono'; font-size: 8px; white-space: pre;" x="450.808" y="113.148">fontsize(): set font size</text>
  <text style="fill: rgb(51, 51, 51); font-family: 'Roboto Mono'; font-size: 8px; white-space: pre;" x="450.808" y="128.148">italic(): set italic font</text>
  <text style="fill: rgb(51, 51, 51); font-family: 'Roboto Mono'; font-size: 8px; white-space: pre;" x="450.808" y="143.148">bold(): set bold font</text>
  <text style="fill: rgb(51, 51, 51); font-family: 'Roboto Mono'; font-size: 8px; white-space: pre;" x="450.808" y="158.148">color(): set font color</text>
  <text style="fill: rgb(51, 51, 51); font-family: 'Roboto Mono'; font-size: 8px; white-space: pre;" x="450.808" y="173.148">padding(): set paragraph paddings</text>
  <text style="fill: rgb(51, 51, 51); font-family: 'Roboto Mono'; font-size: 8px; white-space: pre;" x="450.808" y="188.148">rotate(): rotate cell text</text>
  <rect x="440.82" y="21.039" width="5.403" height="201" style="fill: rgb(170, 170, 170);"/>
  <path d="M 455.418 257.039 L 451.968 257.039 L 451.968 247.089 L 455.218 247.089 C 456.298 247.089 457.111 247.312 457.658 247.759 C 458.198 248.206 458.468 248.866 458.468 249.739 C 458.468 250.206 458.338 250.616 458.078 250.969 C 457.811 251.329 457.451 251.606 456.998 251.799 C 457.531 251.952 457.955 252.239 458.268 252.659 C 458.581 253.079 458.738 253.582 458.738 254.169 C 458.738 255.062 458.448 255.762 457.868 256.269 C 457.288 256.782 456.471 257.039 455.418 257.039 Z M 455.468 252.379 L 453.278 252.379 L 453.278 255.969 L 455.438 255.969 C 456.051 255.969 456.535 255.809 456.888 255.489 C 457.241 255.176 457.418 254.739 457.418 254.179 C 457.418 252.979 456.768 252.379 455.468 252.379 Z M 453.278 248.169 L 453.278 251.329 L 455.258 251.329 C 455.831 251.329 456.291 251.186 456.638 250.899 C 456.978 250.612 457.148 250.222 457.148 249.729 C 457.148 249.182 456.991 248.786 456.678 248.539 C 456.358 248.292 455.871 248.169 455.218 248.169 L 453.278 248.169 ZM 460.144 253.359 L 460.144 253.269 C 460.144 252.549 460.287 251.899 460.574 251.319 C 460.861 250.739 461.257 250.292 461.764 249.979 C 462.271 249.666 462.851 249.509 463.504 249.509 C 464.511 249.509 465.324 249.856 465.944 250.549 C 466.571 251.249 466.884 252.176 466.884 253.329 L 466.884 253.419 C 466.884 254.139 466.744 254.786 466.464 255.359 C 466.191 255.932 465.797 256.379 465.284 256.699 C 464.771 257.019 464.181 257.179 463.514 257.179 C 462.514 257.179 461.704 256.829 461.084 256.129 C 460.457 255.429 460.144 254.506 460.144 253.359 Z M 461.414 253.419 C 461.414 254.239 461.604 254.899 461.984 255.399 C 462.371 255.892 462.881 256.139 463.514 256.139 C 464.161 256.139 464.671 255.889 465.044 255.389 C 465.424 254.882 465.614 254.176 465.614 253.269 C 465.614 252.462 465.421 251.806 465.034 251.299 C 464.654 250.799 464.144 250.549 463.504 250.549 C 462.877 250.549 462.374 250.796 461.994 251.289 C 461.607 251.789 461.414 252.499 461.414 253.419 ZM 472.038 249.599 L 472.038 250.779 C 471.852 250.746 471.645 250.729 471.418 250.729 C 470.592 250.729 470.028 251.082 469.728 251.789 L 469.728 257.039 L 468.468 257.039 L 468.468 249.639 L 469.698 249.639 L 469.718 250.499 C 470.132 249.839 470.718 249.509 471.478 249.509 C 471.725 249.509 471.912 249.539 472.038 249.599 ZM 472.766 253.379 L 472.766 253.279 C 472.766 252.146 473.036 251.232 473.576 250.539 C 474.109 249.852 474.812 249.509 475.686 249.509 C 476.552 249.509 477.239 249.806 477.746 250.399 L 477.746 246.539 L 479.006 246.539 L 479.006 257.039 L 477.846 257.039 L 477.786 256.249 C 477.279 256.869 476.572 257.179 475.666 257.179 C 474.812 257.179 474.116 256.826 473.576 256.119 C 473.036 255.419 472.766 254.506 472.766 253.379 Z M 474.026 253.419 C 474.026 254.259 474.199 254.916 474.546 255.389 C 474.892 255.862 475.372 256.099 475.986 256.099 C 476.786 256.099 477.372 255.739 477.746 255.019 L 477.746 251.629 C 477.366 250.929 476.782 250.579 475.996 250.579 C 475.376 250.579 474.892 250.819 474.546 251.299 C 474.199 251.779 474.026 252.486 474.026 253.419 ZM 484.041 257.179 C 483.034 257.179 482.218 256.849 481.591 256.189 C 480.964 255.529 480.651 254.649 480.651 253.549 L 480.651 253.309 C 480.651 252.576 480.791 251.922 481.071 251.349 C 481.351 250.769 481.741 250.319 482.241 249.999 C 482.748 249.672 483.294 249.509 483.881 249.509 C 484.841 249.509 485.588 249.826 486.121 250.459 C 486.654 251.092 486.921 251.999 486.921 253.179 L 486.921 253.699 L 481.911 253.699 C 481.931 254.432 482.144 255.022 482.551 255.469 C 482.958 255.916 483.474 256.139 484.101 256.139 C 484.548 256.139 484.928 256.049 485.241 255.869 C 485.548 255.689 485.818 255.449 486.051 255.149 L 486.831 255.749 C 486.211 256.702 485.281 257.179 484.041 257.179 Z M 483.881 250.549 C 483.368 250.549 482.938 250.732 482.591 251.099 C 482.244 251.472 482.031 251.992 481.951 252.659 L 485.661 252.659 L 485.661 252.569 C 485.621 251.929 485.448 251.432 485.141 251.079 C 484.828 250.726 484.408 250.549 483.881 250.549 ZM 491.958 249.599 L 491.958 250.779 C 491.771 250.746 491.565 250.729 491.338 250.729 C 490.511 250.729 489.948 251.082 489.648 251.789 L 489.648 257.039 L 488.388 257.039 L 488.388 249.639 L 489.618 249.639 L 489.638 250.499 C 490.051 249.839 490.638 249.509 491.398 249.509 C 491.645 249.509 491.831 249.539 491.958 249.599 ZM 497.425 255.079 C 497.425 254.739 497.299 254.472 497.045 254.279 C 496.785 254.092 496.335 253.929 495.695 253.789 C 495.055 253.656 494.549 253.492 494.175 253.299 C 493.795 253.106 493.515 252.879 493.335 252.619 C 493.155 252.352 493.065 252.036 493.065 251.669 C 493.065 251.062 493.322 250.552 493.835 250.139 C 494.349 249.719 495.005 249.509 495.805 249.509 C 496.639 249.509 497.319 249.726 497.845 250.159 C 498.365 250.592 498.625 251.146 498.625 251.819 L 497.355 251.819 C 497.355 251.472 497.209 251.172 496.915 250.919 C 496.622 250.672 496.252 250.549 495.805 250.549 C 495.345 250.549 494.985 250.649 494.725 250.849 C 494.465 251.049 494.335 251.309 494.335 251.629 C 494.335 251.936 494.455 252.166 494.695 252.319 C 494.935 252.479 495.372 252.629 496.005 252.769 C 496.639 252.909 497.149 253.076 497.535 253.269 C 497.929 253.469 498.219 253.706 498.405 253.979 C 498.599 254.252 498.695 254.589 498.695 254.989 C 498.695 255.649 498.432 256.179 497.905 256.579 C 497.372 256.979 496.685 257.179 495.845 257.179 C 495.252 257.179 494.729 257.072 494.275 256.859 C 493.815 256.652 493.459 256.359 493.205 255.979 C 492.945 255.606 492.815 255.199 492.815 254.759 L 494.075 254.759 C 494.102 255.186 494.272 255.522 494.585 255.769 C 494.905 256.016 495.325 256.139 495.845 256.139 C 496.325 256.139 496.709 256.042 496.995 255.849 C 497.282 255.656 497.425 255.399 497.425 255.079 Z" transform="matrix(1, 0, 0, 1, 0, 0)" style="fill: rgb(51, 51, 51); white-space: pre;"/>
  <text style="fill: rgb(51, 51, 51); font-family: 'Roboto Mono'; font-size: 8px; white-space: pre;" x="450.808" y="277.039">border_outer() border_inner_h()</text>
  <text style="fill: rgb(51, 51, 51); font-family: 'Roboto Mono'; font-size: 8px; white-space: pre;" x="450.808" y="292.039">border_inner_v() hline()</text>
  <text style="fill: rgb(51, 51, 51); font-family: 'Roboto Mono'; font-size: 8px; white-space: pre;" x="450.808" y="307.039">hline_top() hline_bottom()</text>
  <text style="fill: rgb(51, 51, 51); font-family: 'Roboto Mono'; font-size: 8px; white-space: pre;" x="450.808" y="322.039">vline() vline_left()</text>
  <text style="fill: rgb(51, 51, 51); font-family: 'Roboto Mono'; font-size: 8px; white-space: pre;" x="450.808" y="337.039">vline_right() border()</text>
  <rect x="440.82" y="243.039" width="5" height="99" style="fill: rgb(170, 170, 170);"/>
  <rect x="155.82" y="95.039" width="20" height="20" style="fill: rgb(71, 95, 119);"/>
  <rect x="155.82" y="120.039" width="20" height="20" style="fill: rgb(71, 95, 119);"/>
  <rect x="155.82" y="145.039" width="20" height="20" style="fill: rgb(71, 95, 119);"/>
  <rect x="155.82" y="170.039" width="20" height="20" style="fill: rgb(71, 95, 119);"/>
  <rect x="155.82" y="20.039" width="20" height="20" style="fill: rgb(235, 85, 85);"/>
  <rect x="155.82" y="45.039" width="20" height="20" style="fill: rgb(235, 85, 85);"/>
  <rect x="155.82" y="70.039" width="20" height="20" style="fill: rgb(235, 85, 85);"/>
  <rect x="155.82" y="195.039" width="20" height="20" style="fill: rgb(27, 187, 218);"/>
  <rect x="155.82" y="220.039" width="20" height="20" style="fill: rgb(27, 187, 218);"/>
  <path d="M 166.648 267.71 L 166.648 268.78 L 162.478 268.78 L 162.478 273.18 L 161.168 273.18 L 161.168 263.23 L 167.328 263.23 L 167.328 264.31 L 162.478 264.31 L 162.478 267.71 L 166.648 267.71 ZM 168.222 269.5 L 168.222 269.41 C 168.222 268.69 168.365 268.04 168.652 267.46 C 168.939 266.88 169.335 266.433 169.842 266.12 C 170.349 265.807 170.929 265.65 171.582 265.65 C 172.589 265.65 173.402 265.997 174.022 266.69 C 174.649 267.39 174.962 268.317 174.962 269.47 L 174.962 269.56 C 174.962 270.28 174.822 270.927 174.542 271.5 C 174.269 272.073 173.875 272.52 173.362 272.84 C 172.849 273.16 172.259 273.32 171.592 273.32 C 170.592 273.32 169.782 272.97 169.162 272.27 C 168.535 271.57 168.222 270.647 168.222 269.5 Z M 169.492 269.56 C 169.492 270.38 169.682 271.04 170.062 271.54 C 170.449 272.033 170.959 272.28 171.592 272.28 C 172.239 272.28 172.749 272.03 173.122 271.53 C 173.502 271.023 173.692 270.317 173.692 269.41 C 173.692 268.603 173.499 267.947 173.112 267.44 C 172.732 266.94 172.222 266.69 171.582 266.69 C 170.955 266.69 170.452 266.937 170.072 267.43 C 169.685 267.93 169.492 268.64 169.492 269.56 ZM 180.116 265.74 L 180.116 266.92 C 179.929 266.887 179.722 266.87 179.496 266.87 C 178.669 266.87 178.106 267.223 177.806 267.93 L 177.806 273.18 L 176.546 273.18 L 176.546 265.78 L 177.776 265.78 L 177.796 266.64 C 178.209 265.98 178.796 265.65 179.556 265.65 C 179.802 265.65 179.989 265.68 180.116 265.74 ZM 181.272 265.78 L 182.472 265.78 L 182.502 266.6 C 183.042 265.967 183.776 265.65 184.702 265.65 C 185.736 265.65 186.439 266.047 186.812 266.84 C 187.059 266.48 187.379 266.19 187.772 265.97 C 188.166 265.757 188.632 265.65 189.172 265.65 C 190.792 265.65 191.616 266.507 191.642 268.22 L 191.642 273.18 L 190.382 273.18 L 190.382 268.3 C 190.382 267.773 190.259 267.377 190.012 267.11 C 189.772 266.85 189.369 266.72 188.802 266.72 C 188.329 266.72 187.939 266.86 187.632 267.14 C 187.319 267.42 187.139 267.797 187.092 268.27 L 187.092 273.18 L 185.822 273.18 L 185.822 268.33 C 185.822 267.257 185.296 266.72 184.242 266.72 C 183.409 266.72 182.839 267.073 182.532 267.78 L 182.532 273.18 L 181.272 273.18 L 181.272 265.78 ZM 199.442 273.18 L 198.112 273.18 C 198.038 273.033 197.982 272.773 197.942 272.4 C 197.348 273.013 196.645 273.32 195.832 273.32 C 195.105 273.32 194.508 273.113 194.042 272.7 C 193.575 272.287 193.342 271.763 193.342 271.13 C 193.342 270.357 193.632 269.757 194.212 269.33 C 194.798 268.91 195.622 268.7 196.682 268.7 L 197.922 268.7 L 197.922 268.11 C 197.922 267.67 197.788 267.32 197.522 267.06 C 197.255 266.8 196.865 266.67 196.352 266.67 C 195.898 266.67 195.522 266.783 195.222 267.01 C 194.915 267.237 194.762 267.51 194.762 267.83 L 193.492 267.83 C 193.492 267.463 193.622 267.107 193.882 266.76 C 194.142 266.42 194.495 266.15 194.942 265.95 C 195.395 265.75 195.888 265.65 196.422 265.65 C 197.275 265.65 197.945 265.863 198.432 266.29 C 198.912 266.717 199.162 267.303 199.182 268.05 L 199.182 271.45 C 199.182 272.13 199.268 272.67 199.442 273.07 L 199.442 273.18 Z M 196.012 272.22 C 196.412 272.22 196.788 272.117 197.142 271.91 C 197.502 271.703 197.762 271.437 197.922 271.11 L 197.922 269.59 L 196.922 269.59 C 195.375 269.59 194.602 270.043 194.602 270.95 C 194.602 271.35 194.735 271.66 195.002 271.88 C 195.262 272.107 195.598 272.22 196.012 272.22 ZM 201.616 263.99 L 202.876 263.99 L 202.876 265.78 L 204.256 265.78 L 204.256 266.76 L 202.876 266.76 L 202.876 271.35 C 202.876 271.643 202.94 271.863 203.066 272.01 C 203.186 272.163 203.396 272.24 203.696 272.24 C 203.843 272.24 204.043 272.21 204.296 272.15 L 204.296 273.18 C 203.963 273.273 203.64 273.32 203.326 273.32 C 202.76 273.32 202.333 273.147 202.046 272.8 C 201.76 272.46 201.616 271.977 201.616 271.35 L 201.616 266.76 L 200.266 266.76 L 200.266 265.78 L 201.616 265.78 L 201.616 263.99 ZM 212.164 272.28 C 212.618 272.28 213.014 272.143 213.354 271.87 C 213.688 271.597 213.874 271.257 213.914 270.85 L 215.104 270.85 C 215.084 271.27 214.941 271.673 214.674 272.06 C 214.401 272.44 214.041 272.743 213.594 272.97 C 213.148 273.203 212.671 273.32 212.164 273.32 C 211.158 273.32 210.358 272.983 209.764 272.31 C 209.171 271.637 208.874 270.717 208.874 269.55 L 208.874 269.34 C 208.874 268.62 209.008 267.98 209.274 267.42 C 209.534 266.86 209.911 266.423 210.404 266.11 C 210.904 265.803 211.491 265.65 212.164 265.65 C 212.991 265.65 213.678 265.897 214.224 266.39 C 214.778 266.89 215.071 267.537 215.104 268.33 L 213.914 268.33 C 213.874 267.85 213.691 267.457 213.364 267.15 C 213.038 266.843 212.638 266.69 212.164 266.69 C 211.518 266.69 211.018 266.92 210.664 267.38 C 210.311 267.84 210.134 268.51 210.134 269.39 L 210.134 269.63 C 210.134 270.477 210.311 271.13 210.664 271.59 C 211.018 272.05 211.518 272.28 212.164 272.28 ZM 216.192 269.5 L 216.192 269.41 C 216.192 268.69 216.335 268.04 216.622 267.46 C 216.909 266.88 217.305 266.433 217.812 266.12 C 218.319 265.807 218.899 265.65 219.552 265.65 C 220.559 265.65 221.372 265.997 221.992 266.69 C 222.619 267.39 222.932 268.317 222.932 269.47 L 222.932 269.56 C 222.932 270.28 222.792 270.927 222.512 271.5 C 222.239 272.073 221.845 272.52 221.332 272.84 C 220.819 273.16 220.229 273.32 219.562 273.32 C 218.562 273.32 217.752 272.97 217.132 272.27 C 216.505 271.57 216.192 270.647 216.192 269.5 Z M 217.462 269.56 C 217.462 270.38 217.652 271.04 218.032 271.54 C 218.419 272.033 218.929 272.28 219.562 272.28 C 220.209 272.28 220.719 272.03 221.092 271.53 C 221.472 271.023 221.662 270.317 221.662 269.41 C 221.662 268.603 221.469 267.947 221.082 267.44 C 220.702 266.94 220.192 266.69 219.552 266.69 C 218.925 266.69 218.422 266.937 218.042 267.43 C 217.655 267.93 217.462 268.64 217.462 269.56 ZM 224.515 265.78 L 225.705 265.78 L 225.745 266.71 C 226.312 266.003 227.052 265.65 227.965 265.65 C 229.525 265.65 230.312 266.53 230.325 268.29 L 230.325 273.18 L 229.065 273.18 L 229.065 268.29 C 229.059 267.757 228.935 267.36 228.695 267.1 C 228.462 266.847 228.092 266.72 227.585 266.72 C 227.172 266.72 226.812 266.83 226.505 267.05 C 226.192 267.27 225.949 267.557 225.775 267.91 L 225.775 273.18 L 224.515 273.18 L 224.515 265.78 ZM 232.689 263.99 L 233.949 263.99 L 233.949 265.78 L 235.329 265.78 L 235.329 266.76 L 233.949 266.76 L 233.949 271.35 C 233.949 271.643 234.013 271.863 234.139 272.01 C 234.259 272.163 234.469 272.24 234.769 272.24 C 234.916 272.24 235.116 272.21 235.369 272.15 L 235.369 273.18 C 235.036 273.273 234.713 273.32 234.399 273.32 C 233.833 273.32 233.406 273.147 233.119 272.8 C 232.833 272.46 232.689 271.977 232.689 271.35 L 232.689 266.76 L 231.339 266.76 L 231.339 265.78 L 232.689 265.78 L 232.689 263.99 ZM 239.882 273.32 C 238.875 273.32 238.059 272.99 237.432 272.33 C 236.805 271.67 236.492 270.79 236.492 269.69 L 236.492 269.45 C 236.492 268.717 236.632 268.063 236.912 267.49 C 237.192 266.91 237.582 266.46 238.082 266.14 C 238.589 265.813 239.135 265.65 239.722 265.65 C 240.682 265.65 241.429 265.967 241.962 266.6 C 242.495 267.233 242.762 268.14 242.762 269.32 L 242.762 269.84 L 237.752 269.84 C 237.772 270.573 237.985 271.163 238.392 271.61 C 238.799 272.057 239.315 272.28 239.942 272.28 C 240.389 272.28 240.769 272.19 241.082 272.01 C 241.389 271.83 241.659 271.59 241.892 271.29 L 242.672 271.89 C 242.052 272.843 241.122 273.32 239.882 273.32 Z M 239.722 266.69 C 239.209 266.69 238.779 266.873 238.432 267.24 C 238.085 267.613 237.872 268.133 237.792 268.8 L 241.502 268.8 L 241.502 268.71 C 241.462 268.07 241.289 267.573 240.982 267.22 C 240.669 266.867 240.249 266.69 239.722 266.69 ZM 244.228 265.78 L 245.418 265.78 L 245.458 266.71 C 246.025 266.003 246.765 265.65 247.678 265.65 C 249.238 265.65 250.025 266.53 250.038 268.29 L 250.038 273.18 L 248.778 273.18 L 248.778 268.29 C 248.772 267.757 248.648 267.36 248.408 267.1 C 248.175 266.847 247.805 266.72 247.298 266.72 C 246.885 266.72 246.525 266.83 246.218 267.05 C 245.905 267.27 245.662 267.557 245.488 267.91 L 245.488 273.18 L 244.228 273.18 L 244.228 265.78 ZM 252.402 263.99 L 253.662 263.99 L 253.662 265.78 L 255.042 265.78 L 255.042 266.76 L 253.662 266.76 L 253.662 271.35 C 253.662 271.643 253.726 271.863 253.852 272.01 C 253.972 272.163 254.182 272.24 254.482 272.24 C 254.629 272.24 254.829 272.21 255.082 272.15 L 255.082 273.18 C 254.749 273.273 254.426 273.32 254.112 273.32 C 253.546 273.32 253.119 273.147 252.832 272.8 C 252.546 272.46 252.402 271.977 252.402 271.35 L 252.402 266.76 L 251.052 266.76 L 251.052 265.78 L 252.402 265.78 L 252.402 263.99 Z" transform="matrix(1, 0, 0, 0.9980510473251343, 38.80000305175781, 0.5068230032920837)" style="fill: rgb(51, 51, 51); white-space: pre;"/>
  <text transform="matrix(1, 0, 0, 0.998051, 38.800003, 0.506823)" style="fill: rgb(51, 51, 51); font-family: 'Roboto Mono'; font-size: 8px; white-space: pre;" x="160.008" y="293.18">colformat_char() colformat_int()</text>
  <text transform="matrix(1, 0, 0, 0.998051, 38.800003, 0.506823)" style="fill: rgb(51, 51, 51); font-family: 'Roboto Mono'; font-size: 8px; white-space: pre;" x="160.008" y="308.18">colformat_lgl() colformat_num()</text>
  <text transform="matrix(1, 0, 0, 0.998051, 38.800003, -14.464059)" style="fill: rgb(235, 85, 85); font-family: &quot;Roboto Mono&quot;; font-size: 8px; white-space: pre;" x="160.008" y="338.18">compose(as_paragraph(...))</text>
  <text transform="matrix(1, 0, 0, 0.998051, 38.800003, -9.444569)" style="fill: rgb(51, 51, 51); font-family: &quot;Roboto Mono&quot;; font-size: 8px; white-space: pre;" x="160.008" y="348.18">footnote(as_paragraph(...))</text>
  <rect x="188.8" y="260.039" width="5" height="96" style="fill: rgb(170, 170, 170);"/>
  <path d="M 161.168 263.23 L 162.858 263.23 L 166.108 271.35 L 169.368 263.23 L 171.068 263.23 L 171.068 273.18 L 169.758 273.18 L 169.758 269.3 L 169.878 265.12 L 166.608 273.18 L 165.608 273.18 L 162.348 265.14 L 162.478 269.3 L 162.478 273.18 L 161.168 273.18 L 161.168 263.23 ZM 176.259 273.32 C 175.253 273.32 174.436 272.99 173.809 272.33 C 173.183 271.67 172.869 270.79 172.869 269.69 L 172.869 269.45 C 172.869 268.717 173.009 268.063 173.289 267.49 C 173.569 266.91 173.959 266.46 174.459 266.14 C 174.966 265.813 175.513 265.65 176.099 265.65 C 177.059 265.65 177.806 265.967 178.339 266.6 C 178.873 267.233 179.139 268.14 179.139 269.32 L 179.139 269.84 L 174.129 269.84 C 174.149 270.573 174.363 271.163 174.769 271.61 C 175.176 272.057 175.693 272.28 176.319 272.28 C 176.766 272.28 177.146 272.19 177.459 272.01 C 177.766 271.83 178.036 271.59 178.269 271.29 L 179.049 271.89 C 178.429 272.843 177.499 273.32 176.259 273.32 Z M 176.099 266.69 C 175.586 266.69 175.156 266.873 174.809 267.24 C 174.463 267.613 174.249 268.133 174.169 268.8 L 177.879 268.8 L 177.879 268.71 C 177.839 268.07 177.666 267.573 177.359 267.22 C 177.046 266.867 176.626 266.69 176.099 266.69 ZM 184.176 265.74 L 184.176 266.92 C 183.989 266.887 183.782 266.87 183.556 266.87 C 182.729 266.87 182.166 267.223 181.866 267.93 L 181.866 273.18 L 180.606 273.18 L 180.606 265.78 L 181.836 265.78 L 181.856 266.64 C 182.269 265.98 182.856 265.65 183.616 265.65 C 183.862 265.65 184.049 265.68 184.176 265.74 ZM 184.913 269.42 C 184.913 268.267 185.179 267.35 185.713 266.67 C 186.246 265.99 186.953 265.65 187.833 265.65 C 188.733 265.65 189.436 265.967 189.943 266.6 L 190.003 265.78 L 191.153 265.78 L 191.153 273 C 191.153 273.96 190.869 274.713 190.303 275.26 C 189.736 275.813 188.976 276.09 188.023 276.09 C 187.489 276.09 186.966 275.977 186.453 275.75 C 185.946 275.523 185.556 275.21 185.283 274.81 L 185.943 274.06 C 186.483 274.727 187.146 275.06 187.933 275.06 C 188.546 275.06 189.026 274.887 189.373 274.54 C 189.713 274.193 189.883 273.707 189.883 273.08 L 189.883 272.44 C 189.376 273.027 188.686 273.32 187.813 273.32 C 186.946 273.32 186.246 272.97 185.713 272.27 C 185.179 271.57 184.913 270.62 184.913 269.42 Z M 186.183 269.56 C 186.183 270.393 186.353 271.05 186.693 271.53 C 187.033 272.003 187.513 272.24 188.133 272.24 C 188.926 272.24 189.509 271.88 189.883 271.16 L 189.883 267.78 C 189.496 267.073 188.916 266.72 188.143 266.72 C 187.529 266.72 187.049 266.96 186.703 267.44 C 186.356 267.92 186.183 268.627 186.183 269.56 ZM 196.136 273.32 C 195.13 273.32 194.313 272.99 193.686 272.33 C 193.06 271.67 192.746 270.79 192.746 269.69 L 192.746 269.45 C 192.746 268.717 192.886 268.063 193.166 267.49 C 193.446 266.91 193.836 266.46 194.336 266.14 C 194.843 265.813 195.39 265.65 195.976 265.65 C 196.936 265.65 197.683 265.967 198.216 266.6 C 198.75 267.233 199.016 268.14 199.016 269.32 L 199.016 269.84 L 194.006 269.84 C 194.026 270.573 194.24 271.163 194.646 271.61 C 195.053 272.057 195.57 272.28 196.196 272.28 C 196.643 272.28 197.023 272.19 197.336 272.01 C 197.643 271.83 197.913 271.59 198.146 271.29 L 198.926 271.89 C 198.306 272.843 197.376 273.32 196.136 273.32 Z M 195.976 266.69 C 195.463 266.69 195.033 266.873 194.686 267.24 C 194.34 267.613 194.126 268.133 194.046 268.8 L 197.756 268.8 L 197.756 268.71 C 197.716 268.07 197.543 267.573 197.236 267.22 C 196.923 266.867 196.503 266.69 195.976 266.69 ZM 206.908 272.28 C 207.361 272.28 207.758 272.143 208.098 271.87 C 208.431 271.597 208.618 271.257 208.658 270.85 L 209.848 270.85 C 209.828 271.27 209.685 271.673 209.418 272.06 C 209.145 272.44 208.785 272.743 208.338 272.97 C 207.891 273.203 207.415 273.32 206.908 273.32 C 205.901 273.32 205.101 272.983 204.508 272.31 C 203.915 271.637 203.618 270.717 203.618 269.55 L 203.618 269.34 C 203.618 268.62 203.751 267.98 204.018 267.42 C 204.278 266.86 204.655 266.423 205.148 266.11 C 205.648 265.803 206.235 265.65 206.908 265.65 C 207.735 265.65 208.421 265.897 208.968 266.39 C 209.521 266.89 209.815 267.537 209.848 268.33 L 208.658 268.33 C 208.618 267.85 208.435 267.457 208.108 267.15 C 207.781 266.843 207.381 266.69 206.908 266.69 C 206.261 266.69 205.761 266.92 205.408 267.38 C 205.055 267.84 204.878 268.51 204.878 269.39 L 204.878 269.63 C 204.878 270.477 205.055 271.13 205.408 271.59 C 205.761 272.05 206.261 272.28 206.908 272.28 ZM 214.346 273.32 C 213.339 273.32 212.522 272.99 211.896 272.33 C 211.269 271.67 210.956 270.79 210.956 269.69 L 210.956 269.45 C 210.956 268.717 211.096 268.063 211.376 267.49 C 211.656 266.91 212.046 266.46 212.546 266.14 C 213.052 265.813 213.599 265.65 214.186 265.65 C 215.146 265.65 215.892 265.967 216.426 266.6 C 216.959 267.233 217.226 268.14 217.226 269.32 L 217.226 269.84 L 212.216 269.84 C 212.236 270.573 212.449 271.163 212.856 271.61 C 213.262 272.057 213.779 272.28 214.406 272.28 C 214.852 272.28 215.232 272.19 215.546 272.01 C 215.852 271.83 216.122 271.59 216.356 271.29 L 217.136 271.89 C 216.516 272.843 215.586 273.32 214.346 273.32 Z M 214.186 266.69 C 213.672 266.69 213.242 266.873 212.896 267.24 C 212.549 267.613 212.336 268.133 212.256 268.8 L 215.966 268.8 L 215.966 268.71 C 215.926 268.07 215.752 267.573 215.446 267.22 C 215.132 266.867 214.712 266.69 214.186 266.69 ZM 220.062 262.68 L 220.062 273.18 L 218.802 273.18 L 218.802 262.68 L 220.062 262.68 ZM 223.459 262.68 L 223.459 273.18 L 222.199 273.18 L 222.199 262.68 L 223.459 262.68 ZM 229.786 271.22 C 229.786 270.88 229.659 270.613 229.406 270.42 C 229.146 270.233 228.696 270.07 228.056 269.93 C 227.416 269.797 226.909 269.633 226.536 269.44 C 226.156 269.247 225.876 269.02 225.696 268.76 C 225.516 268.493 225.426 268.177 225.426 267.81 C 225.426 267.203 225.683 266.693 226.196 266.28 C 226.709 265.86 227.366 265.65 228.166 265.65 C 228.999 265.65 229.679 265.867 230.206 266.3 C 230.726 266.733 230.986 267.287 230.986 267.96 L 229.716 267.96 C 229.716 267.613 229.569 267.313 229.276 267.06 C 228.983 266.813 228.613 266.69 228.166 266.69 C 227.706 266.69 227.346 266.79 227.086 266.99 C 226.826 267.19 226.696 267.45 226.696 267.77 C 226.696 268.077 226.816 268.307 227.056 268.46 C 227.296 268.62 227.733 268.77 228.366 268.91 C 228.999 269.05 229.509 269.217 229.896 269.41 C 230.289 269.61 230.579 269.847 230.766 270.12 C 230.959 270.393 231.056 270.73 231.056 271.13 C 231.056 271.79 230.793 272.32 230.266 272.72 C 229.733 273.12 229.046 273.32 228.206 273.32 C 227.613 273.32 227.089 273.213 226.636 273 C 226.176 272.793 225.819 272.5 225.566 272.12 C 225.306 271.747 225.176 271.34 225.176 270.9 L 226.436 270.9 C 226.463 271.327 226.633 271.663 226.946 271.91 C 227.266 272.157 227.686 272.28 228.206 272.28 C 228.686 272.28 229.069 272.183 229.356 271.99 C 229.643 271.797 229.786 271.54 229.786 271.22 Z" transform="matrix(1, 0, 0, 0.9980510473251343, -133, -239.53173828125)" style="fill: rgb(51, 51, 51); white-space: pre;"/>
  <text style="fill: rgb(51, 51, 51); font-family: 'Roboto Mono'; font-size: 8px; white-space: pre;" x="160.008" y="293.18" transform="matrix(1, 0, 0, 0.998051, -133, -239.531738)">merge_at() merge_h()</text>
  <text style="fill: rgb(51, 51, 51); font-family: 'Roboto Mono'; font-size: 8px; white-space: pre;" x="160.008" y="308.18" transform="matrix(1, 0, 0, 0.998051, -133, -239.531738)">merge_v() </text>
  <rect y="20" width="5" height="51" style="fill: rgb(170, 170, 170);" x="17"/>
  <path d="M 161.738 263.23 L 163.308 270.04 L 163.498 271.35 L 163.778 270.17 L 165.748 263.23 L 166.858 263.23 L 168.778 270.17 L 169.048 271.38 L 169.268 270.04 L 170.808 263.23 L 172.128 263.23 L 169.718 273.18 L 168.518 273.18 L 166.468 265.93 L 166.308 265.17 L 166.158 265.93 L 164.028 273.18 L 162.828 273.18 L 160.428 263.23 L 161.738 263.23 ZM 174.758 265.78 L 174.758 273.18 L 173.498 273.18 L 173.498 265.78 L 174.758 265.78 Z M 173.388 263.82 C 173.388 263.613 173.451 263.44 173.578 263.3 C 173.704 263.16 173.891 263.09 174.138 263.09 C 174.384 263.09 174.571 263.16 174.698 263.3 C 174.824 263.44 174.888 263.613 174.888 263.82 C 174.888 264.027 174.824 264.197 174.698 264.33 C 174.571 264.47 174.384 264.54 174.138 264.54 C 173.891 264.54 173.704 264.47 173.578 264.33 C 173.451 264.197 173.388 264.027 173.388 263.82 ZM 176.475 269.52 L 176.475 269.42 C 176.475 268.287 176.745 267.373 177.285 266.68 C 177.818 265.993 178.521 265.65 179.395 265.65 C 180.261 265.65 180.948 265.947 181.455 266.54 L 181.455 262.68 L 182.715 262.68 L 182.715 273.18 L 181.555 273.18 L 181.495 272.39 C 180.988 273.01 180.281 273.32 179.375 273.32 C 178.521 273.32 177.825 272.967 177.285 272.26 C 176.745 271.56 176.475 270.647 176.475 269.52 Z M 177.735 269.56 C 177.735 270.4 177.908 271.057 178.255 271.53 C 178.601 272.003 179.081 272.24 179.695 272.24 C 180.495 272.24 181.081 271.88 181.455 271.16 L 181.455 267.77 C 181.075 267.07 180.491 266.72 179.705 266.72 C 179.085 266.72 178.601 266.96 178.255 267.44 C 177.908 267.92 177.735 268.627 177.735 269.56 ZM 185.13 263.99 L 186.39 263.99 L 186.39 265.78 L 187.77 265.78 L 187.77 266.76 L 186.39 266.76 L 186.39 271.35 C 186.39 271.643 186.453 271.863 186.58 272.01 C 186.7 272.163 186.91 272.24 187.21 272.24 C 187.356 272.24 187.556 272.21 187.81 272.15 L 187.81 273.18 C 187.476 273.273 187.153 273.32 186.84 273.32 C 186.273 273.32 185.846 273.147 185.56 272.8 C 185.273 272.46 185.13 271.977 185.13 271.35 L 185.13 266.76 L 183.78 266.76 L 183.78 265.78 L 185.13 265.78 L 185.13 263.99 ZM 190.512 262.68 L 190.512 266.68 C 191.072 265.993 191.802 265.65 192.702 265.65 C 194.262 265.65 195.049 266.53 195.062 268.29 L 195.062 273.18 L 193.802 273.18 L 193.802 268.29 C 193.796 267.757 193.672 267.36 193.432 267.1 C 193.199 266.847 192.829 266.72 192.322 266.72 C 191.909 266.72 191.549 266.83 191.242 267.05 C 190.929 267.27 190.686 267.557 190.512 267.91 L 190.512 273.18 L 189.252 273.18 L 189.252 262.68 L 190.512 262.68 ZM 201.262 271.22 C 201.262 270.88 201.136 270.613 200.882 270.42 C 200.622 270.233 200.172 270.07 199.532 269.93 C 198.892 269.797 198.386 269.633 198.012 269.44 C 197.632 269.247 197.352 269.02 197.172 268.76 C 196.992 268.493 196.902 268.177 196.902 267.81 C 196.902 267.203 197.159 266.693 197.672 266.28 C 198.186 265.86 198.842 265.65 199.642 265.65 C 200.476 265.65 201.156 265.867 201.682 266.3 C 202.202 266.733 202.462 267.287 202.462 267.96 L 201.192 267.96 C 201.192 267.613 201.046 267.313 200.752 267.06 C 200.459 266.813 200.089 266.69 199.642 266.69 C 199.182 266.69 198.822 266.79 198.562 266.99 C 198.302 267.19 198.172 267.45 198.172 267.77 C 198.172 268.077 198.292 268.307 198.532 268.46 C 198.772 268.62 199.209 268.77 199.842 268.91 C 200.476 269.05 200.986 269.217 201.372 269.41 C 201.766 269.61 202.056 269.847 202.242 270.12 C 202.436 270.393 202.532 270.73 202.532 271.13 C 202.532 271.79 202.269 272.32 201.742 272.72 C 201.209 273.12 200.522 273.32 199.682 273.32 C 199.089 273.32 198.566 273.213 198.112 273 C 197.652 272.793 197.296 272.5 197.042 272.12 C 196.782 271.747 196.652 271.34 196.652 270.9 L 197.912 270.9 C 197.939 271.327 198.109 271.663 198.422 271.91 C 198.742 272.157 199.162 272.28 199.682 272.28 C 200.162 272.28 200.546 272.183 200.832 271.99 C 201.119 271.797 201.262 271.54 201.262 271.22 ZM 213.536 273.18 L 212.206 273.18 C 212.133 273.033 212.076 272.773 212.036 272.4 C 211.443 273.013 210.739 273.32 209.926 273.32 C 209.199 273.32 208.603 273.113 208.136 272.7 C 207.669 272.287 207.436 271.763 207.436 271.13 C 207.436 270.357 207.726 269.757 208.306 269.33 C 208.893 268.91 209.716 268.7 210.776 268.7 L 212.016 268.7 L 212.016 268.11 C 212.016 267.67 211.883 267.32 211.616 267.06 C 211.349 266.8 210.959 266.67 210.446 266.67 C 209.993 266.67 209.616 266.783 209.316 267.01 C 209.009 267.237 208.856 267.51 208.856 267.83 L 207.586 267.83 C 207.586 267.463 207.716 267.107 207.976 266.76 C 208.236 266.42 208.589 266.15 209.036 265.95 C 209.489 265.75 209.983 265.65 210.516 265.65 C 211.369 265.65 212.039 265.863 212.526 266.29 C 213.006 266.717 213.256 267.303 213.276 268.05 L 213.276 271.45 C 213.276 272.13 213.363 272.67 213.536 273.07 L 213.536 273.18 Z M 210.106 272.22 C 210.506 272.22 210.883 272.117 211.236 271.91 C 211.596 271.703 211.856 271.437 212.016 271.11 L 212.016 269.59 L 211.016 269.59 C 209.469 269.59 208.696 270.043 208.696 270.95 C 208.696 271.35 208.829 271.66 209.096 271.88 C 209.356 272.107 209.693 272.22 210.106 272.22 ZM 215.26 265.78 L 216.45 265.78 L 216.49 266.71 C 217.057 266.003 217.797 265.65 218.71 265.65 C 220.27 265.65 221.057 266.53 221.07 268.29 L 221.07 273.18 L 219.81 273.18 L 219.81 268.29 C 219.804 267.757 219.68 267.36 219.44 267.1 C 219.207 266.847 218.837 266.72 218.33 266.72 C 217.917 266.72 217.557 266.83 217.25 267.05 C 216.937 267.27 216.694 267.557 216.52 267.91 L 216.52 273.18 L 215.26 273.18 L 215.26 265.78 ZM 222.674 269.52 L 222.674 269.42 C 222.674 268.287 222.944 267.373 223.484 266.68 C 224.018 265.993 224.721 265.65 225.594 265.65 C 226.461 265.65 227.148 265.947 227.654 266.54 L 227.654 262.68 L 228.914 262.68 L 228.914 273.18 L 227.754 273.18 L 227.694 272.39 C 227.188 273.01 226.481 273.32 225.574 273.32 C 224.721 273.32 224.024 272.967 223.484 272.26 C 222.944 271.56 222.674 270.647 222.674 269.52 Z M 223.934 269.56 C 223.934 270.4 224.108 271.057 224.454 271.53 C 224.801 272.003 225.281 272.24 225.894 272.24 C 226.694 272.24 227.281 271.88 227.654 271.16 L 227.654 267.77 C 227.274 267.07 226.691 266.72 225.904 266.72 C 225.284 266.72 224.801 266.96 224.454 267.44 C 224.108 267.92 223.934 268.627 223.934 269.56 ZM 235.605 262.68 L 235.605 266.68 C 236.165 265.993 236.895 265.65 237.795 265.65 C 239.355 265.65 240.141 266.53 240.155 268.29 L 240.155 273.18 L 238.895 273.18 L 238.895 268.29 C 238.888 267.757 238.765 267.36 238.525 267.1 C 238.291 266.847 237.921 266.72 237.415 266.72 C 237.001 266.72 236.641 266.83 236.335 267.05 C 236.021 267.27 235.778 267.557 235.605 267.91 L 235.605 273.18 L 234.345 273.18 L 234.345 262.68 L 235.605 262.68 ZM 245.125 273.32 C 244.118 273.32 243.301 272.99 242.675 272.33 C 242.048 271.67 241.735 270.79 241.735 269.69 L 241.735 269.45 C 241.735 268.717 241.875 268.063 242.155 267.49 C 242.435 266.91 242.825 266.46 243.325 266.14 C 243.831 265.813 244.378 265.65 244.965 265.65 C 245.925 265.65 246.671 265.967 247.205 266.6 C 247.738 267.233 248.005 268.14 248.005 269.32 L 248.005 269.84 L 242.995 269.84 C 243.015 270.573 243.228 271.163 243.635 271.61 C 244.041 272.057 244.558 272.28 245.185 272.28 C 245.631 272.28 246.011 272.19 246.325 272.01 C 246.631 271.83 246.901 271.59 247.135 271.29 L 247.915 271.89 C 247.295 272.843 246.365 273.32 245.125 273.32 Z M 244.965 266.69 C 244.451 266.69 244.021 266.873 243.675 267.24 C 243.328 267.613 243.115 268.133 243.035 268.8 L 246.745 268.8 L 246.745 268.71 C 246.705 268.07 246.531 267.573 246.225 267.22 C 245.911 266.867 245.491 266.69 244.965 266.69 ZM 250.841 265.78 L 250.841 273.18 L 249.581 273.18 L 249.581 265.78 L 250.841 265.78 Z M 249.471 263.82 C 249.471 263.613 249.534 263.44 249.661 263.3 C 249.788 263.16 249.974 263.09 250.221 263.09 C 250.468 263.09 250.654 263.16 250.781 263.3 C 250.908 263.44 250.971 263.613 250.971 263.82 C 250.971 264.027 250.908 264.197 250.781 264.33 C 250.654 264.47 250.468 264.54 250.221 264.54 C 249.974 264.54 249.788 264.47 249.661 264.33 C 249.534 264.197 249.471 264.027 249.471 263.82 ZM 252.568 269.42 C 252.568 268.267 252.835 267.35 253.368 266.67 C 253.901 265.99 254.608 265.65 255.488 265.65 C 256.388 265.65 257.091 265.967 257.598 266.6 L 257.658 265.78 L 258.808 265.78 L 258.808 273 C 258.808 273.96 258.525 274.713 257.958 275.26 C 257.391 275.813 256.631 276.09 255.678 276.09 C 255.145 276.09 254.621 275.977 254.108 275.75 C 253.601 275.523 253.211 275.21 252.938 274.81 L 253.598 274.06 C 254.138 274.727 254.801 275.06 255.588 275.06 C 256.201 275.06 256.681 274.887 257.028 274.54 C 257.368 274.193 257.538 273.707 257.538 273.08 L 257.538 272.44 C 257.031 273.027 256.341 273.32 255.468 273.32 C 254.601 273.32 253.901 272.97 253.368 272.27 C 252.835 271.57 252.568 270.62 252.568 269.42 Z M 253.838 269.56 C 253.838 270.393 254.008 271.05 254.348 271.53 C 254.688 272.003 255.168 272.24 255.788 272.24 C 256.581 272.24 257.165 271.88 257.538 271.16 L 257.538 267.78 C 257.151 267.073 256.571 266.72 255.798 266.72 C 255.185 266.72 254.705 266.96 254.358 267.44 C 254.011 267.92 253.838 268.627 253.838 269.56 ZM 261.982 262.68 L 261.982 266.68 C 262.542 265.993 263.272 265.65 264.172 265.65 C 265.732 265.65 266.519 266.53 266.532 268.29 L 266.532 273.18 L 265.272 273.18 L 265.272 268.29 C 265.265 267.757 265.142 267.36 264.902 267.1 C 264.669 266.847 264.299 266.72 263.792 266.72 C 263.379 266.72 263.019 266.83 262.712 267.05 C 262.399 267.27 262.155 267.557 261.982 267.91 L 261.982 273.18 L 260.722 273.18 L 260.722 262.68 L 261.982 262.68 ZM 268.882 263.99 L 270.142 263.99 L 270.142 265.78 L 271.522 265.78 L 271.522 266.76 L 270.142 266.76 L 270.142 271.35 C 270.142 271.643 270.205 271.863 270.332 272.01 C 270.452 272.163 270.662 272.24 270.962 272.24 C 271.109 272.24 271.309 272.21 271.562 272.15 L 271.562 273.18 C 271.229 273.273 270.905 273.32 270.592 273.32 C 270.025 273.32 269.599 273.147 269.312 272.8 C 269.025 272.46 268.882 271.977 268.882 271.35 L 268.882 266.76 L 267.532 266.76 L 267.532 265.78 L 268.882 265.78 L 268.882 263.99 ZM 277.305 271.22 C 277.305 270.88 277.178 270.613 276.925 270.42 C 276.665 270.233 276.215 270.07 275.575 269.93 C 274.935 269.797 274.428 269.633 274.055 269.44 C 273.675 269.247 273.395 269.02 273.215 268.76 C 273.035 268.493 272.945 268.177 272.945 267.81 C 272.945 267.203 273.201 266.693 273.715 266.28 C 274.228 265.86 274.885 265.65 275.685 265.65 C 276.518 265.65 277.198 265.867 277.725 266.3 C 278.245 266.733 278.505 267.287 278.505 267.96 L 277.235 267.96 C 277.235 267.613 277.088 267.313 276.795 267.06 C 276.501 266.813 276.131 266.69 275.685 266.69 C 275.225 266.69 274.865 266.79 274.605 266.99 C 274.345 267.19 274.215 267.45 274.215 267.77 C 274.215 268.077 274.335 268.307 274.575 268.46 C 274.815 268.62 275.251 268.77 275.885 268.91 C 276.518 269.05 277.028 269.217 277.415 269.41 C 277.808 269.61 278.098 269.847 278.285 270.12 C 278.478 270.393 278.575 270.73 278.575 271.13 C 278.575 271.79 278.311 272.32 277.785 272.72 C 277.251 273.12 276.565 273.32 275.725 273.32 C 275.131 273.32 274.608 273.213 274.155 273 C 273.695 272.793 273.338 272.5 273.085 272.12 C 272.825 271.747 272.695 271.34 272.695 270.9 L 273.955 270.9 C 273.981 271.327 274.151 271.663 274.465 271.91 C 274.785 272.157 275.205 272.28 275.725 272.28 C 276.205 272.28 276.588 272.183 276.875 271.99 C 277.161 271.797 277.305 271.54 277.305 271.22 Z" transform="matrix(1, 0, 0, 0.9980510473251343, -133, -177.53207397460938)" style="fill: rgb(51, 51, 51); white-space: pre;"/>
  <text transform="matrix(1, 0, 0, 0.998051, -133, -169.532074)" style="fill: rgb(51, 51, 51); font-family: &quot;Roboto Mono&quot;; font-size: 8px; white-space: pre;"><tspan x="160.008" y="278.18" style="fill: rgb(235, 85, 85);">set_table_properties(layout = "autofit")</tspan></text>
  <text transform="matrix(1, 0, 0, 0.998051, -133, -169.532074)" style="fill: rgb(51, 51, 51); font-family: &quot;Roboto Mono&quot;; font-size: 8px; white-space: pre;"><tspan x="160.008" y="293.18" style="fill: rgb(235, 85, 85);">autofit()</tspan><tspan> width()</tspan></text>
  <text style="fill: rgb(51, 51, 51); font-family: 'Roboto Mono'; font-size: 8px; white-space: pre;" x="160.008" y="308.18" transform="matrix(1, 0, 0, 0.998051, -133, -169.532074)">height() height_all() </text>
  <text style="fill: rgb(51, 51, 51); font-family: 'Roboto Mono'; font-size: 8px; white-space: pre;" x="160.008" y="308.18" transform="matrix(1, 0, 0, 0.998051, -133, -155.319794)">fit_to_width()</text>
  <rect y="82" width="5" height="80" style="fill: rgb(170, 170, 170);" x="17"/>
  <path d="M 35.03 176.236 L 35.03 177.316 L 31.83 177.316 L 31.83 186.186 L 30.53 186.186 L 30.53 177.316 L 27.33 177.316 L 27.33 176.236 L 35.03 176.236 ZM 37.574 175.686 L 37.574 179.686 C 38.134 178.999 38.864 178.656 39.764 178.656 C 41.324 178.656 42.11 179.536 42.124 181.296 L 42.124 186.186 L 40.864 186.186 L 40.864 181.296 C 40.857 180.763 40.734 180.366 40.494 180.106 C 40.26 179.853 39.89 179.726 39.384 179.726 C 38.97 179.726 38.61 179.836 38.304 180.056 C 37.99 180.276 37.747 180.563 37.574 180.916 L 37.574 186.186 L 36.314 186.186 L 36.314 175.686 L 37.574 175.686 ZM 47.094 186.326 C 46.088 186.326 45.271 185.996 44.644 185.336 C 44.018 184.676 43.704 183.796 43.704 182.696 L 43.704 182.456 C 43.704 181.723 43.844 181.069 44.124 180.496 C 44.404 179.916 44.794 179.466 45.294 179.146 C 45.801 178.819 46.348 178.656 46.934 178.656 C 47.894 178.656 48.641 178.973 49.174 179.606 C 49.708 180.239 49.974 181.146 49.974 182.326 L 49.974 182.846 L 44.964 182.846 C 44.984 183.579 45.198 184.169 45.604 184.616 C 46.011 185.063 46.528 185.286 47.154 185.286 C 47.601 185.286 47.981 185.196 48.294 185.016 C 48.601 184.836 48.871 184.596 49.104 184.296 L 49.884 184.896 C 49.264 185.849 48.334 186.326 47.094 186.326 Z M 46.934 179.696 C 46.421 179.696 45.991 179.879 45.644 180.246 C 45.298 180.619 45.084 181.139 45.004 181.806 L 48.714 181.806 L 48.714 181.716 C 48.674 181.076 48.501 180.579 48.194 180.226 C 47.881 179.873 47.461 179.696 46.934 179.696 ZM 51.431 178.786 L 52.631 178.786 L 52.661 179.606 C 53.201 178.973 53.935 178.656 54.861 178.656 C 55.895 178.656 56.598 179.053 56.971 179.846 C 57.218 179.486 57.538 179.196 57.931 178.976 C 58.325 178.763 58.791 178.656 59.331 178.656 C 60.951 178.656 61.775 179.513 61.801 181.226 L 61.801 186.186 L 60.541 186.186 L 60.541 181.306 C 60.541 180.779 60.418 180.383 60.171 180.116 C 59.931 179.856 59.528 179.726 58.961 179.726 C 58.488 179.726 58.098 179.866 57.791 180.146 C 57.478 180.426 57.298 180.803 57.251 181.276 L 57.251 186.186 L 55.981 186.186 L 55.981 181.336 C 55.981 180.263 55.455 179.726 54.401 179.726 C 53.568 179.726 52.998 180.079 52.691 180.786 L 52.691 186.186 L 51.431 186.186 L 51.431 178.786 ZM 66.782 186.326 C 65.775 186.326 64.959 185.996 64.332 185.336 C 63.705 184.676 63.392 183.796 63.392 182.696 L 63.392 182.456 C 63.392 181.723 63.532 181.069 63.812 180.496 C 64.092 179.916 64.482 179.466 64.982 179.146 C 65.489 178.819 66.035 178.656 66.622 178.656 C 67.582 178.656 68.329 178.973 68.862 179.606 C 69.395 180.239 69.662 181.146 69.662 182.326 L 69.662 182.846 L 64.652 182.846 C 64.672 183.579 64.885 184.169 65.292 184.616 C 65.699 185.063 66.215 185.286 66.842 185.286 C 67.289 185.286 67.669 185.196 67.982 185.016 C 68.289 184.836 68.559 184.596 68.792 184.296 L 69.572 184.896 C 68.952 185.849 68.022 186.326 66.782 186.326 Z M 66.622 179.696 C 66.109 179.696 65.679 179.879 65.332 180.246 C 64.985 180.619 64.772 181.139 64.692 181.806 L 68.402 181.806 L 68.402 181.716 C 68.362 181.076 68.189 180.579 67.882 180.226 C 67.569 179.873 67.149 179.696 66.622 179.696 ZM 75.429 184.226 C 75.429 183.886 75.302 183.619 75.049 183.426 C 74.789 183.239 74.339 183.076 73.699 182.936 C 73.059 182.803 72.552 182.639 72.179 182.446 C 71.799 182.253 71.519 182.026 71.339 181.766 C 71.159 181.499 71.069 181.183 71.069 180.816 C 71.069 180.209 71.326 179.699 71.839 179.286 C 72.352 178.866 73.009 178.656 73.809 178.656 C 74.642 178.656 75.322 178.873 75.849 179.306 C 76.369 179.739 76.629 180.293 76.629 180.966 L 75.359 180.966 C 75.359 180.619 75.212 180.319 74.919 180.066 C 74.626 179.819 74.256 179.696 73.809 179.696 C 73.349 179.696 72.989 179.796 72.729 179.996 C 72.469 180.196 72.339 180.456 72.339 180.776 C 72.339 181.083 72.459 181.313 72.699 181.466 C 72.939 181.626 73.376 181.776 74.009 181.916 C 74.642 182.056 75.152 182.223 75.539 182.416 C 75.932 182.616 76.222 182.853 76.409 183.126 C 76.602 183.399 76.699 183.736 76.699 184.136 C 76.699 184.796 76.436 185.326 75.909 185.726 C 75.376 186.126 74.689 186.326 73.849 186.326 C 73.256 186.326 72.732 186.219 72.279 186.006 C 71.819 185.799 71.462 185.506 71.209 185.126 C 70.949 184.753 70.819 184.346 70.819 183.906 L 72.079 183.906 C 72.106 184.333 72.276 184.669 72.589 184.916 C 72.909 185.163 73.329 185.286 73.849 185.286 C 74.329 185.286 74.712 185.189 74.999 184.996 C 75.286 184.803 75.429 184.546 75.429 184.226 Z" transform="matrix(1, 0, 0, 1, 0, 0)" style="fill: rgb(51, 51, 51); white-space: pre;"/>
  <text style="fill: rgb(51, 51, 51); font-family: 'Roboto Mono'; font-size: 8px; white-space: pre;" x="27" y="206.186">theme_booktabs()</text>
  <text style="fill: rgb(51, 51, 51); font-family: 'Roboto Mono'; font-size: 8px; white-space: pre;" x="27" y="221.186">theme_vanilla()</text>
  <text style="fill: rgb(51, 51, 51); font-family: 'Roboto Mono'; font-size: 8px; white-space: pre;" x="27" y="236.186">theme_box()</text>
  <text style="fill: rgb(51, 51, 51); font-family: 'Roboto Mono'; font-size: 8px; white-space: pre;" x="27" y="251.186">theme_tron()</text>
  <text style="fill: rgb(51, 51, 51); font-family: 'Roboto Mono'; font-size: 8px; white-space: pre;" x="27" y="266.186">theme_tron_legacy()</text>
  <rect x="17" y="173.077" width="5" height="95" style="fill: rgb(170, 170, 170);"/>
  <path d="M 31.09 291.747 C 29.963 291.427 29.143 291.03 28.63 290.557 C 28.117 290.084 27.86 289.5 27.86 288.807 C 27.86 288.027 28.173 287.38 28.8 286.867 C 29.427 286.354 30.243 286.097 31.25 286.097 C 31.93 286.097 32.537 286.23 33.07 286.497 C 33.61 286.757 34.027 287.12 34.32 287.587 C 34.613 288.054 34.76 288.56 34.76 289.107 L 33.44 289.107 C 33.44 288.507 33.25 288.037 32.87 287.697 C 32.483 287.35 31.943 287.177 31.25 287.177 C 30.597 287.177 30.09 287.32 29.73 287.607 C 29.37 287.887 29.19 288.28 29.19 288.787 C 29.19 289.194 29.36 289.537 29.7 289.817 C 30.047 290.097 30.633 290.354 31.46 290.587 C 32.287 290.82 32.933 291.077 33.4 291.357 C 33.867 291.637 34.213 291.964 34.44 292.337 C 34.667 292.71 34.78 293.15 34.78 293.657 C 34.78 294.464 34.467 295.11 33.84 295.597 C 33.207 296.084 32.363 296.327 31.31 296.327 C 30.63 296.327 29.993 296.194 29.4 295.927 C 28.807 295.667 28.35 295.31 28.03 294.857 C 27.71 294.397 27.55 293.88 27.55 293.307 L 28.87 293.307 C 28.87 293.907 29.09 294.38 29.53 294.727 C 29.977 295.074 30.57 295.247 31.31 295.247 C 32.003 295.247 32.537 295.107 32.91 294.827 C 33.277 294.547 33.46 294.16 33.46 293.667 C 33.46 293.18 33.29 292.804 32.95 292.537 C 32.603 292.27 31.983 292.007 31.09 291.747 ZM 40.856 296.187 L 40.826 295.457 C 40.339 296.037 39.619 296.327 38.666 296.327 C 37.872 296.327 37.272 296.097 36.866 295.637 C 36.452 295.177 36.242 294.5 36.236 293.607 L 36.236 288.787 L 37.496 288.787 L 37.496 293.567 C 37.496 294.687 37.952 295.247 38.866 295.247 C 39.832 295.247 40.476 294.887 40.796 294.167 L 40.796 288.787 L 42.056 288.787 L 42.056 296.187 L 40.856 296.187 ZM 50.233 292.457 L 50.233 292.567 C 50.233 293.694 49.973 294.6 49.453 295.287 C 48.94 295.98 48.243 296.327 47.363 296.327 C 46.463 296.327 45.757 296.04 45.243 295.467 L 45.243 299.027 L 43.983 299.027 L 43.983 288.787 L 45.133 288.787 L 45.193 289.607 C 45.713 288.974 46.43 288.657 47.343 288.657 C 48.23 288.657 48.933 288.99 49.453 289.657 C 49.973 290.33 50.233 291.264 50.233 292.457 Z M 48.963 292.427 C 48.963 291.594 48.787 290.934 48.433 290.447 C 48.073 289.967 47.583 289.727 46.963 289.727 C 46.203 289.727 45.63 290.067 45.243 290.747 L 45.243 294.277 C 45.623 294.95 46.203 295.287 46.983 295.287 C 47.59 295.287 48.07 295.047 48.423 294.567 C 48.783 294.087 48.963 293.374 48.963 292.427 ZM 58.088 292.457 L 58.088 292.567 C 58.088 293.694 57.828 294.6 57.308 295.287 C 56.795 295.98 56.098 296.327 55.218 296.327 C 54.318 296.327 53.611 296.04 53.098 295.467 L 53.098 299.027 L 51.838 299.027 L 51.838 288.787 L 52.988 288.787 L 53.048 289.607 C 53.568 288.974 54.285 288.657 55.198 288.657 C 56.085 288.657 56.788 288.99 57.308 289.657 C 57.828 290.33 58.088 291.264 58.088 292.457 Z M 56.818 292.427 C 56.818 291.594 56.641 290.934 56.288 290.447 C 55.928 289.967 55.438 289.727 54.818 289.727 C 54.058 289.727 53.485 290.067 53.098 290.747 L 53.098 294.277 C 53.478 294.95 54.058 295.287 54.838 295.287 C 55.445 295.287 55.925 295.047 56.278 294.567 C 56.638 294.087 56.818 293.374 56.818 292.427 ZM 59.352 292.507 L 59.352 292.417 C 59.352 291.697 59.496 291.047 59.782 290.467 C 60.069 289.887 60.466 289.44 60.972 289.127 C 61.479 288.814 62.059 288.657 62.712 288.657 C 63.719 288.657 64.532 289.004 65.152 289.697 C 65.779 290.397 66.092 291.324 66.092 292.477 L 66.092 292.567 C 66.092 293.287 65.952 293.934 65.672 294.507 C 65.399 295.08 65.006 295.527 64.492 295.847 C 63.979 296.167 63.389 296.327 62.722 296.327 C 61.722 296.327 60.912 295.977 60.292 295.277 C 59.666 294.577 59.352 293.654 59.352 292.507 Z M 60.622 292.567 C 60.622 293.387 60.812 294.047 61.192 294.547 C 61.579 295.04 62.089 295.287 62.722 295.287 C 63.369 295.287 63.879 295.037 64.252 294.537 C 64.632 294.03 64.822 293.324 64.822 292.417 C 64.822 291.61 64.629 290.954 64.242 290.447 C 63.862 289.947 63.352 289.697 62.712 289.697 C 62.086 289.697 61.582 289.944 61.202 290.437 C 60.816 290.937 60.622 291.647 60.622 292.567 ZM 71.247 288.747 L 71.247 289.927 C 71.06 289.894 70.853 289.877 70.627 289.877 C 69.8 289.877 69.237 290.23 68.937 290.937 L 68.937 296.187 L 67.677 296.187 L 67.677 288.787 L 68.907 288.787 L 68.927 289.647 C 69.34 288.987 69.927 288.657 70.687 288.657 C 70.933 288.657 71.12 288.687 71.247 288.747 ZM 73.206 286.997 L 74.466 286.997 L 74.466 288.787 L 75.846 288.787 L 75.846 289.767 L 74.466 289.767 L 74.466 294.357 C 74.466 294.65 74.529 294.87 74.656 295.017 C 74.776 295.17 74.986 295.247 75.286 295.247 C 75.433 295.247 75.633 295.217 75.886 295.157 L 75.886 296.187 C 75.553 296.28 75.229 296.327 74.916 296.327 C 74.349 296.327 73.923 296.154 73.636 295.807 C 73.349 295.467 73.206 294.984 73.206 294.357 L 73.206 289.767 L 71.856 289.767 L 71.856 288.787 L 73.206 288.787 L 73.206 286.997 ZM 80.399 296.327 C 79.392 296.327 78.576 295.997 77.949 295.337 C 77.322 294.677 77.009 293.797 77.009 292.697 L 77.009 292.457 C 77.009 291.724 77.149 291.07 77.429 290.497 C 77.709 289.917 78.099 289.467 78.599 289.147 C 79.106 288.82 79.652 288.657 80.239 288.657 C 81.199 288.657 81.946 288.974 82.479 289.607 C 83.012 290.24 83.279 291.147 83.279 292.327 L 83.279 292.847 L 78.269 292.847 C 78.289 293.58 78.502 294.17 78.909 294.617 C 79.316 295.064 79.832 295.287 80.459 295.287 C 80.906 295.287 81.286 295.197 81.599 295.017 C 81.906 294.837 82.176 294.597 82.409 294.297 L 83.189 294.897 C 82.569 295.85 81.639 296.327 80.399 296.327 Z M 80.239 289.697 C 79.726 289.697 79.296 289.88 78.949 290.247 C 78.602 290.62 78.389 291.14 78.309 291.807 L 82.019 291.807 L 82.019 291.717 C 81.979 291.077 81.806 290.58 81.499 290.227 C 81.186 289.874 80.766 289.697 80.239 289.697 ZM 84.436 292.527 L 84.436 292.427 C 84.436 291.294 84.706 290.38 85.246 289.687 C 85.779 289 86.483 288.657 87.356 288.657 C 88.223 288.657 88.909 288.954 89.416 289.547 L 89.416 285.687 L 90.676 285.687 L 90.676 296.187 L 89.516 296.187 L 89.456 295.397 C 88.949 296.017 88.243 296.327 87.336 296.327 C 86.483 296.327 85.786 295.974 85.246 295.267 C 84.706 294.567 84.436 293.654 84.436 292.527 Z M 85.696 292.567 C 85.696 293.407 85.869 294.064 86.216 294.537 C 86.563 295.01 87.043 295.247 87.656 295.247 C 88.456 295.247 89.043 294.887 89.416 294.167 L 89.416 290.777 C 89.036 290.077 88.453 289.727 87.666 289.727 C 87.046 289.727 86.563 289.967 86.216 290.447 C 85.869 290.927 85.696 291.634 85.696 292.567 ZM 95.767 292.507 L 95.767 292.417 C 95.767 291.697 95.911 291.047 96.197 290.467 C 96.484 289.887 96.881 289.44 97.387 289.127 C 97.894 288.814 98.474 288.657 99.127 288.657 C 100.134 288.657 100.947 289.004 101.567 289.697 C 102.194 290.397 102.507 291.324 102.507 292.477 L 102.507 292.567 C 102.507 293.287 102.367 293.934 102.087 294.507 C 101.814 295.08 101.421 295.527 100.907 295.847 C 100.394 296.167 99.804 296.327 99.137 296.327 C 98.137 296.327 97.327 295.977 96.707 295.277 C 96.081 294.577 95.767 293.654 95.767 292.507 Z M 97.037 292.567 C 97.037 293.387 97.227 294.047 97.607 294.547 C 97.994 295.04 98.504 295.287 99.137 295.287 C 99.784 295.287 100.294 295.037 100.667 294.537 C 101.047 294.03 101.237 293.324 101.237 292.417 C 101.237 291.61 101.044 290.954 100.657 290.447 C 100.277 289.947 99.767 289.697 99.127 289.697 C 98.501 289.697 97.997 289.944 97.617 290.437 C 97.231 290.937 97.037 291.647 97.037 292.567 ZM 108.682 296.187 L 108.652 295.457 C 108.165 296.037 107.445 296.327 106.492 296.327 C 105.699 296.327 105.099 296.097 104.692 295.637 C 104.279 295.177 104.069 294.5 104.062 293.607 L 104.062 288.787 L 105.322 288.787 L 105.322 293.567 C 105.322 294.687 105.779 295.247 106.692 295.247 C 107.659 295.247 108.302 294.887 108.622 294.167 L 108.622 288.787 L 109.882 288.787 L 109.882 296.187 L 108.682 296.187 ZM 112.26 286.997 L 113.52 286.997 L 113.52 288.787 L 114.9 288.787 L 114.9 289.767 L 113.52 289.767 L 113.52 294.357 C 113.52 294.65 113.583 294.87 113.71 295.017 C 113.83 295.17 114.04 295.247 114.34 295.247 C 114.486 295.247 114.686 295.217 114.94 295.157 L 114.94 296.187 C 114.606 296.28 114.283 296.327 113.97 296.327 C 113.403 296.327 112.976 296.154 112.69 295.807 C 112.403 295.467 112.26 294.984 112.26 294.357 L 112.26 289.767 L 110.91 289.767 L 110.91 288.787 L 112.26 288.787 L 112.26 286.997 ZM 122.633 292.457 L 122.633 292.567 C 122.633 293.694 122.373 294.6 121.853 295.287 C 121.34 295.98 120.643 296.327 119.763 296.327 C 118.863 296.327 118.156 296.04 117.643 295.467 L 117.643 299.027 L 116.383 299.027 L 116.383 288.787 L 117.533 288.787 L 117.593 289.607 C 118.113 288.974 118.83 288.657 119.743 288.657 C 120.63 288.657 121.333 288.99 121.853 289.657 C 122.373 290.33 122.633 291.264 122.633 292.457 Z M 121.363 292.427 C 121.363 291.594 121.186 290.934 120.833 290.447 C 120.473 289.967 119.983 289.727 119.363 289.727 C 118.603 289.727 118.03 290.067 117.643 290.747 L 117.643 294.277 C 118.023 294.95 118.603 295.287 119.383 295.287 C 119.99 295.287 120.47 295.047 120.823 294.567 C 121.183 294.087 121.363 293.374 121.363 292.427 ZM 128.827 296.187 L 128.797 295.457 C 128.311 296.037 127.591 296.327 126.637 296.327 C 125.844 296.327 125.244 296.097 124.837 295.637 C 124.424 295.177 124.214 294.5 124.207 293.607 L 124.207 288.787 L 125.467 288.787 L 125.467 293.567 C 125.467 294.687 125.924 295.247 126.837 295.247 C 127.804 295.247 128.447 294.887 128.767 294.167 L 128.767 288.787 L 130.027 288.787 L 130.027 296.187 L 128.827 296.187 ZM 132.405 286.997 L 133.665 286.997 L 133.665 288.787 L 135.045 288.787 L 135.045 289.767 L 133.665 289.767 L 133.665 294.357 C 133.665 294.65 133.728 294.87 133.855 295.017 C 133.975 295.17 134.185 295.247 134.485 295.247 C 134.632 295.247 134.832 295.217 135.085 295.157 L 135.085 296.187 C 134.752 296.28 134.428 296.327 134.115 296.327 C 133.548 296.327 133.122 296.154 132.835 295.807 C 132.548 295.467 132.405 294.984 132.405 294.357 L 132.405 289.767 L 131.055 289.767 L 131.055 288.787 L 132.405 288.787 L 132.405 286.997 Z" transform="matrix(1, 0, 0, 1, 0, 0)" style="fill: rgb(235, 85, 85); white-space: pre;"/>
  <text style="fill: rgb(201, 7, 7); font-family: &quot;Roboto Mono&quot;; font-size: 8px; white-space: pre;" y="-7" x="-3"><tspan x="27" y="311.399" style="fill: rgb(235, 85, 85); font-size: 8px; word-spacing: 0px;">R Markdown</tspan><tspan style="fill: rgb(51, 51, 51); font-size: 8px; word-spacing: 0px;">: HTML, Word and PowerPoint</tspan></text>
  <text style="fill: rgb(51, 51, 51); font-family: &quot;Roboto Mono&quot;; font-size: 8px; white-space: pre;" y="-7" x="-3"><tspan x="27" y="326.399" style="font-size: 8px; word-spacing: 0px;">Word and PowerPoint with </tspan><tspan style="fill: rgb(235, 85, 85); font-size: 8px; word-spacing: 0px;">officer</tspan></text>
  <text style="font-family: &quot;Roboto Mono&quot;; font-size: 8px; white-space: pre;" y="7" x="-3"><tspan x="27" y="341.399" style="font-size: 8px; word-spacing: 0px;">plot with </tspan><tspan style="fill: rgb(235, 85, 85); font-size: 8px; word-spacing: 0px;">plot() </tspan><tspan style="font-size: 8px; word-spacing: 0px;">- images with </tspan><tspan style="fill: rgb(235, 85, 85); font-size: 8px; word-spacing: 0px;">save_as_images()</tspan></text>
  <rect x="17" y="283.078" width="5" height="62" style="fill: rgb(235, 85, 85);"/>
  <path d="M 166.848 263.23 L 168.168 263.23 L 168.168 269.99 C 168.168 270.93 167.875 271.7 167.288 272.3 C 166.701 272.893 165.905 273.227 164.898 273.3 L 164.558 273.32 C 163.465 273.32 162.595 273.023 161.948 272.43 C 161.301 271.843 160.975 271.037 160.968 270.01 L 160.968 263.23 L 162.268 263.23 L 162.268 269.97 C 162.268 270.69 162.465 271.25 162.858 271.65 C 163.258 272.043 163.825 272.24 164.558 272.24 C 165.298 272.24 165.865 272.043 166.258 271.65 C 166.651 271.25 166.848 270.69 166.848 269.97 L 166.848 263.23 ZM 170.495 263.99 L 171.755 263.99 L 171.755 265.78 L 173.135 265.78 L 173.135 266.76 L 171.755 266.76 L 171.755 271.35 C 171.755 271.643 171.819 271.863 171.945 272.01 C 172.065 272.163 172.275 272.24 172.575 272.24 C 172.722 272.24 172.922 272.21 173.175 272.15 L 173.175 273.18 C 172.842 273.273 172.519 273.32 172.205 273.32 C 171.639 273.32 171.212 273.147 170.925 272.8 C 170.639 272.46 170.495 271.977 170.495 271.35 L 170.495 266.76 L 169.145 266.76 L 169.145 265.78 L 170.495 265.78 L 170.495 263.99 ZM 175.988 265.78 L 175.988 273.18 L 174.728 273.18 L 174.728 265.78 L 175.988 265.78 Z M 174.618 263.82 C 174.618 263.613 174.681 263.44 174.808 263.3 C 174.935 263.16 175.121 263.09 175.368 263.09 C 175.615 263.09 175.801 263.16 175.928 263.3 C 176.055 263.44 176.118 263.613 176.118 263.82 C 176.118 264.027 176.055 264.197 175.928 264.33 C 175.801 264.47 175.615 264.54 175.368 264.54 C 175.121 264.54 174.935 264.47 174.808 264.33 C 174.681 264.197 174.618 264.027 174.618 263.82 ZM 179.385 262.68 L 179.385 273.18 L 178.125 273.18 L 178.125 262.68 L 179.385 262.68 ZM 182.782 265.78 L 182.782 273.18 L 181.522 273.18 L 181.522 265.78 L 182.782 265.78 Z M 181.412 263.82 C 181.412 263.613 181.476 263.44 181.602 263.3 C 181.729 263.16 181.916 263.09 182.162 263.09 C 182.409 263.09 182.596 263.16 182.722 263.3 C 182.849 263.44 182.912 263.613 182.912 263.82 C 182.912 264.027 182.849 264.197 182.722 264.33 C 182.596 264.47 182.409 264.54 182.162 264.54 C 181.916 264.54 181.729 264.47 181.602 264.33 C 181.476 264.197 181.412 264.027 181.412 263.82 ZM 185.259 263.99 L 186.519 263.99 L 186.519 265.78 L 187.899 265.78 L 187.899 266.76 L 186.519 266.76 L 186.519 271.35 C 186.519 271.643 186.583 271.863 186.709 272.01 C 186.829 272.163 187.039 272.24 187.339 272.24 C 187.486 272.24 187.686 272.21 187.939 272.15 L 187.939 273.18 C 187.606 273.273 187.283 273.32 186.969 273.32 C 186.403 273.32 185.976 273.147 185.689 272.8 C 185.403 272.46 185.259 271.977 185.259 271.35 L 185.259 266.76 L 183.909 266.76 L 183.909 265.78 L 185.259 265.78 L 185.259 263.99 ZM 190.752 265.78 L 190.752 273.18 L 189.492 273.18 L 189.492 265.78 L 190.752 265.78 Z M 189.382 263.82 C 189.382 263.613 189.446 263.44 189.572 263.3 C 189.699 263.16 189.886 263.09 190.132 263.09 C 190.379 263.09 190.566 263.16 190.692 263.3 C 190.819 263.44 190.882 263.613 190.882 263.82 C 190.882 264.027 190.819 264.197 190.692 264.33 C 190.566 264.47 190.379 264.54 190.132 264.54 C 189.886 264.54 189.699 264.47 189.572 264.33 C 189.446 264.197 189.382 264.027 189.382 263.82 ZM 195.849 273.32 C 194.843 273.32 194.026 272.99 193.399 272.33 C 192.773 271.67 192.459 270.79 192.459 269.69 L 192.459 269.45 C 192.459 268.717 192.599 268.063 192.879 267.49 C 193.159 266.91 193.549 266.46 194.049 266.14 C 194.556 265.813 195.103 265.65 195.689 265.65 C 196.649 265.65 197.396 265.967 197.929 266.6 C 198.463 267.233 198.729 268.14 198.729 269.32 L 198.729 269.84 L 193.719 269.84 C 193.739 270.573 193.953 271.163 194.359 271.61 C 194.766 272.057 195.283 272.28 195.909 272.28 C 196.356 272.28 196.736 272.19 197.049 272.01 C 197.356 271.83 197.626 271.59 197.859 271.29 L 198.639 271.89 C 198.019 272.843 197.089 273.32 195.849 273.32 Z M 195.689 266.69 C 195.176 266.69 194.746 266.873 194.399 267.24 C 194.053 267.613 193.839 268.133 193.759 268.8 L 197.469 268.8 L 197.469 268.71 C 197.429 268.07 197.256 267.573 196.949 267.22 C 196.636 266.867 196.216 266.69 195.689 266.69 ZM 204.496 271.22 C 204.496 270.88 204.369 270.613 204.116 270.42 C 203.856 270.233 203.406 270.07 202.766 269.93 C 202.126 269.797 201.619 269.633 201.246 269.44 C 200.866 269.247 200.586 269.02 200.406 268.76 C 200.226 268.493 200.136 268.177 200.136 267.81 C 200.136 267.203 200.392 266.693 200.906 266.28 C 201.419 265.86 202.076 265.65 202.876 265.65 C 203.709 265.65 204.389 265.867 204.916 266.3 C 205.436 266.733 205.696 267.287 205.696 267.96 L 204.426 267.96 C 204.426 267.613 204.279 267.313 203.986 267.06 C 203.692 266.813 203.322 266.69 202.876 266.69 C 202.416 266.69 202.056 266.79 201.796 266.99 C 201.536 267.19 201.406 267.45 201.406 267.77 C 201.406 268.077 201.526 268.307 201.766 268.46 C 202.006 268.62 202.442 268.77 203.076 268.91 C 203.709 269.05 204.219 269.217 204.606 269.41 C 204.999 269.61 205.289 269.847 205.476 270.12 C 205.669 270.393 205.766 270.73 205.766 271.13 C 205.766 271.79 205.502 272.32 204.976 272.72 C 204.442 273.12 203.756 273.32 202.916 273.32 C 202.322 273.32 201.799 273.213 201.346 273 C 200.886 272.793 200.529 272.5 200.276 272.12 C 200.016 271.747 199.886 271.34 199.886 270.9 L 201.146 270.9 C 201.172 271.327 201.342 271.663 201.656 271.91 C 201.976 272.157 202.396 272.28 202.916 272.28 C 203.396 272.28 203.779 272.183 204.066 271.99 C 204.352 271.797 204.496 271.54 204.496 271.22 Z" transform="matrix(1, 0, 0, 0.9980510473251343, 192.99851989746094, 1.7997419834136963)" style="fill: rgb(51, 51, 51); white-space: pre;"/>
  <text transform="matrix(1, 0, 0, 0.998051, 192.99852, 1.799742)" style="fill: rgb(235, 85, 85); font-family: &quot;Roboto Mono&quot;; font-size: 8px; white-space: pre;" x="160.008" y="293.18">as_flextable()</text>
  <text style="fill: rgb(51, 51, 51); font-family: 'Roboto Mono'; font-size: 8px; white-space: pre;" x="160.008" y="308.18" transform="matrix(1, 0, 0, 0.998051, 192.99852, 16.780203)">as_grouped_data() </text>
  <rect y="261.332" width="5" height="84" style="fill: rgb(170, 170, 170);" x="343.998"/>
  <text style="fill: rgb(51, 51, 51); font-family: 'Roboto Mono'; font-size: 8px; white-space: pre;" x="450.801" y="203.164">valign(): vertical alignment</text>
  <text style="fill: rgb(235, 85, 85); font-family: 'Roboto Mono'; font-size: 8px; white-space: pre;" x="450.808" y="218.148">highlight(): text highlight color</text>
  <text style="fill: rgb(51, 51, 51); font-family: 'Roboto Mono'; font-size: 8px; white-space: pre;" x="160.008" y="308.18" transform="matrix(1, 0, 0, 0.998051, 193, 31.760662)">proc_freq() </text>
  <text transform="matrix(1, 0, 0, 0.998051, 193, 16.850967)" style="fill: rgb(235, 85, 85); font-family: &quot;Roboto Mono&quot;; font-size: 8px; white-space: pre;" x="160.008" y="293.18">    for glm, lm, xtable</text>
</svg>